<svg xmlns="http://www.w3.org/2000/svg" width="19.41" height="19.41" viewBox="0 0 19.41 19.41">
  <path id="Icon_ionic-logo-facebook" data-name="Icon ionic-logo-facebook" d="M22.838,4.5H5.572A1.072,1.072,0,0,0,4.5,5.572V22.838A1.072,1.072,0,0,0,5.572,23.91H14.2V16.227h-2.32V13.4H14.2V11.3a3.688,3.688,0,0,1,3.978-3.872c1.072,0,2.224.081,2.492.116v2.618H18.891c-1.218,0-1.451.576-1.451,1.425v1.8h2.9l-.379,2.831H17.44V23.91h5.4a1.072,1.072,0,0,0,1.072-1.072V5.572A1.072,1.072,0,0,0,22.838,4.5Z" transform="translate(23.91 -4.5) rotate(90)" fill="#48609a"/>
</svg>
