<svg xmlns="http://www.w3.org/2000/svg" width="14.965" height="14.965" viewBox="0 0 14.965 14.965">
  <g id="Icon_ionic-ios-image" data-name="Icon ionic-ios-image" transform="translate(18.34 -3.375) rotate(90)">
    <path id="Path_1651" data-name="Path 1651" d="M7.724,16.306h6.86a.2.2,0,0,0,.162-.317l-3.432-5.518a.2.2,0,0,0-.327,0L7.559,15.99A.2.2,0,0,0,7.724,16.306Z" transform="translate(-2.025 -3.424)" fill="#c1c1c1"/>
    <path id="Path_1652" data-name="Path 1652" d="M21.531,16.479l1.259,2a.2.2,0,0,0,.162.086h1.914a.2.2,0,0,0,.162-.317L22.812,15.1a.2.2,0,0,0-.327,0l-.957,1.155A.207.207,0,0,0,21.531,16.479Z" transform="translate(-8.85 -5.683)" fill="#c1c1c1"/>
    <path id="Path_1653" data-name="Path 1653" d="M23.628,9.888a1.007,1.007,0,1,0-1.1-1.1A1.011,1.011,0,0,0,23.628,9.888Z" transform="translate(-9.349 -2.199)" fill="#c1c1c1"/>
    <path id="Path_1654" data-name="Path 1654" d="M17.189,3.375H4.526A1.15,1.15,0,0,0,3.375,4.526V17.189A1.15,1.15,0,0,0,4.526,18.34H17.189a1.15,1.15,0,0,0,1.151-1.151V4.526A1.15,1.15,0,0,0,17.189,3.375Zm-.1,10.072a.289.289,0,0,1-.288.288H4.911a.289.289,0,0,1-.288-.288V4.911a.289.289,0,0,1,.288-.288h11.9a.289.289,0,0,1,.288.288v8.536Z" fill="#c1c1c1"/>
  </g>
</svg>
