<svg xmlns="http://www.w3.org/2000/svg" width="19.414" height="19.414" viewBox="0 0 19.414 19.414">
  <path id="Icon_awesome-linkedin" data-name="Icon awesome-linkedin" d="M18.027,2.25H1.382A1.393,1.393,0,0,0,0,3.65V20.264a1.393,1.393,0,0,0,1.382,1.4H18.027a1.4,1.4,0,0,0,1.387-1.4V3.65A1.4,1.4,0,0,0,18.027,2.25ZM5.868,18.891H2.99V9.626H5.872v9.265ZM4.429,8.36A1.668,1.668,0,1,1,6.1,6.692,1.669,1.669,0,0,1,4.429,8.36Zm12.225,10.53H13.776V14.384c0-1.075-.022-2.457-1.5-2.457-1.5,0-1.729,1.17-1.729,2.379v4.585H7.675V9.626h2.76v1.265h.039A3.031,3.031,0,0,1,13.2,9.4c2.912,0,3.454,1.92,3.454,4.416Z" transform="translate(21.664) rotate(90)" fill="#0a66c2"/>
</svg>
