<svg id="ThreeDot" xmlns="http://www.w3.org/2000/svg" xmlns:xlink="http://www.w3.org/1999/xlink" width="19" height="30" viewBox="0 0 19 30">
  <defs>
    <clipPath id="clip-path">
      <rect id="Rectangle_333" data-name="Rectangle 333" width="19" height="30" transform="translate(1832 149)" fill="#fff" stroke="#707070" stroke-width="1"/>
    </clipPath>
    <filter id="Rectangle_332" x="-117" y="21" width="150" height="109" filterUnits="userSpaceOnUse">
      <feOffset dx="4" dy="4" input="SourceAlpha"/>
      <feGaussianBlur stdDeviation="5" result="blur"/>
      <feFlood flood-opacity="0.161"/>
      <feComposite operator="in" in2="blur"/>
      <feComposite in="SourceGraphic"/>
    </filter>
  </defs>
  <g id="Mask_Group_16" data-name="Mask Group 16" transform="translate(-1832 -149)" clip-path="url(#clip-path)">
    <g transform="matrix(1, 0, 0, 1, 1832, 149)" filter="url(#Rectangle_332)">
      <rect id="Rectangle_332-2" data-name="Rectangle 332" width="120" height="79" rx="11" transform="translate(-106 32)" fill="#fff"/>
    </g>
    <g id="ExportMode">
      <text id="Export_Mode" data-name="Export Mode" transform="translate(1838 209)" fill="#454545" font-size="15" font-family="BalooBhaina2-Regular, 'Baloo Bhaina \32 '"><tspan x="-81" y="0">Export Mode</tspan></text>
      <path id="Icon_awesome-file-export" data-name="Icon awesome-file-export" d="M10.308,3.272a.642.642,0,0,0-.188-.454L7.492.188A.644.644,0,0,0,7.036,0H6.872V3.436h3.436Zm5.02,5L12.759,5.68a.431.431,0,0,0-.736.3V7.731H10.305V9.449h1.718V11.2a.431.431,0,0,0,.736.3l2.569-2.59A.457.457,0,0,0,15.328,8.268ZM5.154,9.019V8.16a.431.431,0,0,1,.429-.429h4.724V4.295H6.657a.646.646,0,0,1-.644-.644V0H.644A.643.643,0,0,0,0,.644V13.1a.643.643,0,0,0,.644.644H9.664a.643.643,0,0,0,.644-.644V9.449H5.583A.431.431,0,0,1,5.154,9.019Z" transform="translate(1734 197)" fill="#3f72b0"/>
    </g>
    <g id="Settings">
      <text id="Settings-2" data-name="Settings" transform="translate(1756 239)" fill="#454545" font-size="15" font-family="BalooBhaina2-Regular, 'Baloo Bhaina \32 '"><tspan x="0" y="0">Settings</tspan></text>
      <path id="Icon_ionic-ios-settings" data-name="Icon ionic-ios-settings" d="M18.29,12.015a1.934,1.934,0,0,1,1.241-1.8A7.667,7.667,0,0,0,18.6,7.976a1.96,1.96,0,0,1-.787.168,1.93,1.93,0,0,1-1.765-2.716A7.643,7.643,0,0,0,13.82,4.5a1.932,1.932,0,0,1-3.609,0,7.667,7.667,0,0,0-2.235.928A1.93,1.93,0,0,1,6.21,8.144a1.9,1.9,0,0,1-.787-.168A7.836,7.836,0,0,0,4.5,10.215a1.934,1.934,0,0,1,0,3.609,7.666,7.666,0,0,0,.928,2.235A1.931,1.931,0,0,1,7.98,18.607a7.711,7.711,0,0,0,2.235.928,1.929,1.929,0,0,1,3.6,0,7.667,7.667,0,0,0,2.235-.928A1.933,1.933,0,0,1,18.6,16.059a7.711,7.711,0,0,0,.928-2.235A1.943,1.943,0,0,1,18.29,12.015ZM12.05,15.143a3.131,3.131,0,1,1,3.131-3.131A3.13,3.13,0,0,1,12.05,15.143Z" transform="translate(1729.984 222.986)" fill="#3f72b0"/>
    </g>
    <g id="Option">
      <circle id="Ellipse_166" data-name="Ellipse 166" cx="3" cy="3" r="3" transform="translate(1838 153)" fill="#3f72b0"/>
      <circle id="Ellipse_167" data-name="Ellipse 167" cx="3" cy="3" r="3" transform="translate(1838 163)" fill="#3f72b0"/>
      <circle id="Ellipse_168" data-name="Ellipse 168" cx="3" cy="3" r="3" transform="translate(1838 173)" fill="#3f72b0"/>
    </g>
  </g>
</svg>
