<svg xmlns="http://www.w3.org/2000/svg" xmlns:xlink="http://www.w3.org/1999/xlink" version="1.1" width="1000" height="1000" viewBox="0 0 1000 1000" xml:space="preserve">
<desc>Created with Fabric.js 3.5.0</desc>
<defs>
</defs>
<rect x="0" y="0" width="100%" height="100%" fill="#ffffff"/>
<g transform="matrix(0 -2.7483 2.5901 0 466.4316 100.2844)" id="157771">
<g style="" vector-effect="non-scaling-stroke">
		<g transform="matrix(0.9744 0.225 -0.225 0.9744 18.1759 -19.6121)" id="Path_213" clip-path="url(#CLIPPATH_10)">
<clipPath id="CLIPPATH_10">
	<rect transform="matrix(0.9744 -0.225 0.225 0.9744 -13.2983 23.1981)" id="Rectangle_59" x="-36.8" y="-205.8215" rx="6" ry="6" width="73.6" height="411.643"/>
</clipPath>
<path style="stroke: none; stroke-width: 1; stroke-dasharray: none; stroke-linecap: butt; stroke-dashoffset: 0; stroke-linejoin: miter; stroke-miterlimit: 4; is-custom-font: none; font-file-url: none; fill: rgb(255,159,174); fill-rule: nonzero; opacity: 1;" transform=" translate(-30.1815, -167.2404)" d="M 13.567 334.483 s 10.565 -33.309 5.984 -81.709 S -6.686 174.332 2.059 129.827 S 26.63 61.4 17.469 28.576 S 60.363 0.2 60.363 0.2 V 329.548 Z" stroke-linecap="round"/>
</g>
		<g transform="matrix(0.9744 0.225 -0.225 0.9744 64.3263 48.1396)" id="Path_216" clip-path="url(#CLIPPATH_11)">
<clipPath id="CLIPPATH_11">
	<rect transform="matrix(0.9744 -0.225 0.225 0.9744 -73.5068 -32.4355)" id="Rectangle_59" x="-36.8" y="-205.8215" rx="6" ry="6" width="73.6" height="411.643"/>
</clipPath>
<path style="stroke: none; stroke-width: 1; stroke-dasharray: none; stroke-linecap: butt; stroke-dashoffset: 0; stroke-linejoin: miter; stroke-miterlimit: 4; is-custom-font: none; font-file-url: none; fill: rgb(252,108,129); fill-rule: nonzero; opacity: 1;" transform=" translate(-80.5629, -278.525)" d="M 158.648 0 L 24.227 0.8 S -1.351 66.155 10.214 172.824 S 0.9 310.192 2.574 358.118 S 2.272 429.6 6.82 471.057 s -1.206 71.926 -1.206 71.926 l 153.033 14.067 Z" stroke-linecap="round"/>
</g>
</g>
</g>
</svg>