<svg xmlns="http://www.w3.org/2000/svg" width="97.303" height="65.847" viewBox="0 0 97.303 65.847">
  <g id="Group_56" data-name="Group 56" transform="translate(423.303 -1269.716) rotate(90)">
    <circle id="Ellipse_17" data-name="Ellipse 17" cx="11.71" cy="11.71" r="11.71" transform="translate(1298.303 332.461)" fill="#9f616a"/>
    <path id="Path_486" data-name="Path 486" d="M770.445,207.962s-1.419,5.323-3.194,6.742,4.613,7.452,4.613,7.452l12.065.71,2.129-6.742s-3.9-7.807-2.839-12.775S770.445,207.962,770.445,207.962Z" transform="translate(535.665 145.435)" fill="#9f616a"/>
    <path id="Path_487" data-name="Path 487" d="M718.3,242.02s3.194.355,3.9,1.419,5.678,4.258,9.581,3.549,6.387-1.774,7.1-1.419,2.129,7.807,2.129,7.807l-3.9,11.355.71,31.227.36,4.887s2.833.791-5.683,2.565-19.517-1.419-23.065-1.774-9.581-1.419-9.936-3.548,1.065-9.936,1.065-9.936l5.678-23.775,3.549-12.775Z" transform="translate(582.844 117.41)" fill="#3f72b0"/>
    <path id="Path_488" data-name="Path 488" d="M705.343,234.805s-3-1.326-4.066-.144-14.549,2.955-14.549,3.841-2.839,24.82-2.129,26.888-1.419,4.432-1.419,4.432l-2.484,8.864s-6.742,16.842-3.9,17.433a22.135,22.135,0,0,0,6.387,0c1.065,0,.71-11.228,3.549-14.183s6.742-10.342,7.452-11.819,9.581-21.865,9.226-24.229S705.343,234.805,705.343,234.805Z" transform="translate(599.156 122.895)" fill="#d0cde1"/>
    <path id="Path_489" data-name="Path 489" d="M804.563,242.02s2.839,0,3.194.682a37.714,37.714,0,0,0,5.323,6.141c1.419,1.023,6.387,5.458,6.387,6.482s-10.291,8.529-10.291,8.529-4.258,20.128-2.129,26.951,3.548,8.655,2.129,9.678-6.742,3.984-6.742,2.619,1.774-4.11,0-7.18-7.1-22.516-4.968-27.974S804.563,242.02,804.563,242.02Z" transform="translate(514.677 117.41)" fill="#d0cde1"/>
    <path id="Path_490" data-name="Path 490" d="M666.607,358.687s-.355,11,3.548,16.678a67.431,67.431,0,0,1,6.387,12.065s6.387-1.774,7.452-3.9,7.807-.355,7.807-1.065-8.162-4.258-8.871-4.968-3.194-.71-4.613-2.129-1.774-4.613-1.774-4.613l-1.419-9.226Z" transform="translate(605.792 35.873)" fill="#9f616a"/>
    <path id="Path_491" data-name="Path 491" d="M754.757,141.951a6.749,6.749,0,0,1-2.626-.6,3.516,3.516,0,0,1-.9-5.206,6.728,6.728,0,0,1,1.248-1l2.7-1.836a13.193,13.193,0,0,1,3.805-2.02,11.88,11.88,0,0,1,3.89-.23,26.287,26.287,0,0,1,7.452,1.355,12.472,12.472,0,0,1,6.038,4.418c2.284,3.3,2.315,7.761,1.057,11.576s-3.647,7.137-6,10.391l-1.222-5.96a2.2,2.2,0,0,0-.691-1.427c-1.1-.781-2.44.822-3.787.812a2.268,2.268,0,0,1-1.92-1.519,8.657,8.657,0,0,1-.425-2.55c-.161-1.826-.8-4.367-2.528-5.374C759.234,141.838,756.568,142.115,754.757,141.951Z" transform="translate(547.192 195)" fill="#2f2e41"/>
    <path id="Path_492" data-name="Path 492" d="M676.722,251.447h-2.839s-12.065,16.323-10.646,17.388,0,3.9,0,3.9l-2.839,5.323s-3.549,3.194-2.484,3.9,2.484,3.549,2.484,3.549,7.1-1.065,9.226,3.194l4.6-5.81Z" transform="translate(612 110.821)" fill="#d0cde1"/>
    <path id="Path_493" data-name="Path 493" d="M725.965,307.735s-7.807.355-16.678-5.323l-8.871-3.9s-7.807-12.065-8.516-9.936,1.065,6.387,1.065,6.387-10.706,4.955-10.984,5.61,6.016-1,6.016-1-1.065,6.742,4.968,7.1,7.807-1.065,7.807-1.065,25.549,21.291,29.808,14.549S725.965,307.735,725.965,307.735Z" transform="translate(595.049 85.05)" fill="#9f616a"/>
    <path id="Path_494" data-name="Path 494" d="M833.078,283.266l3.9,1.419v10.646l1.419,2.129s-.355,4.258-1.419,5.323-3.194.71-2.484,3.194a13.451,13.451,0,0,1,.355,4.968s-6.387,8.162-6.742,7.1-5.323-14.194-6.033-14.194,7.1-20.581,7.1-20.581Z" transform="translate(497.162 88.584)" fill="#d0cde1"/>
  </g>
</svg>
