<svg xmlns="http://www.w3.org/2000/svg" width="98.912" height="82.327" viewBox="0 0 98.912 82.327">
  <g id="Group_66" data-name="Group 66" transform="translate(98.912) rotate(90)">
    <path id="Path_647" data-name="Path 647" d="M21.292.844s-3.15-2.394-9.827.882S0,2.23,0,2.23L.756,13.191s6.8,2.646,13.1-1.134,8.315,0,8.315,0Z" transform="translate(1.024 2.306)" fill="#3f72b0"/>
    <path id="Path_649" data-name="Path 649" d="M6.755,15.142a15.6,15.6,0,0,0,8.1-2.156c2.546-1.528,4.657-2.032,6.273-1.5a3.3,3.3,0,0,1,1.956,1.66l.327.787L22.1.969,22.065.937c-.111-.106-2.807-2.551-9.862.91C5.293,5.236.255,2.413.2,2.384L0,2.265.016,2.5l.8,11.664.075.029A18.011,18.011,0,0,0,6.755,15.142Zm13.03-4.113a10.258,10.258,0,0,0-5.062,1.741c-6.17,3.7-12.883,1.493-13.662,1.216L.283,2.706c1.023.493,5.782,2.432,12.031-.633C18.8-1.108,21.531.826,21.858,1.091l1.158,11.455a3.628,3.628,0,0,0-1.811-1.3A4.515,4.515,0,0,0,19.785,11.029Z" transform="translate(0 1.265)" fill="#3f3d56"/>
    <ellipse id="Ellipse_23" data-name="Ellipse 23" cx="11.793" cy="11.793" rx="11.793" ry="11.793" transform="translate(51.945 6.604)" fill="#2f2e41"/>
    <ellipse id="Ellipse_24" data-name="Ellipse 24" cx="8.356" cy="8.356" rx="8.356" ry="8.356" transform="translate(52.928 13.326)" fill="#a0616a"/>
    <path id="Path_653" data-name="Path 653" d="M7.307,0s1.238,9.9,5.725,11.914S.654,12.843.654,12.843s0-8.975-.619-9.284S7.307,0,7.307,0Z" transform="translate(60.63 23.538)" fill="#a0616a"/>
    <path id="Path_654" data-name="Path 654" d="M4.178,0,4.8,3.249s8.665,5.106,4.487,6.5S0,3.714,0,3.714L.928,0Z" transform="translate(65.616 88.99)" fill="#a0616a"/>
    <path id="Path_655" data-name="Path 655" d="M25.531,9.129,18.723,16.4,0,3.4S4.333,0,5.725,0,25.531,9.129,25.531,9.129Z" transform="translate(38.228 55.413)" fill="#a0616a"/>
    <path id="Path_656" data-name="Path 656" d="M6.759,13.057S4.747-1.024,1.188.059,3.2,15.069,3.2,15.069Z" transform="translate(20.174 13.266)" fill="#a0616a"/>
    <path id="Path_657" data-name="Path 657" d="M9.748.481S16.5-.6,19,.481s10.068,1.945,11.005.74S39.3,4.04,39.3,5.742,21.2,33.13,21.2,33.13,2.476,27.869,0,22.3c0,0,2.166-1.547,2.166-2.785a4.533,4.533,0,0,1,1.083-2.476,6.3,6.3,0,0,1,.928-5.88C6.344,8.373,9.748.481,9.748.481Z" transform="translate(42.251 33.269)" fill="#d0cde1"/>
    <path id="Path_658" data-name="Path 658" d="M32.649,8.82l-2.011-.464a17.412,17.412,0,0,0-8.356,5.416c-3.4,4.178-9.284,5.57-9.284,5.57L5.88,0,0,2.012s4.642,24.6,9.9,24.912,18.258-5.416,18.258-5.416Z" transform="translate(21.362 25.395)" fill="#d0cde1"/>
    <path id="Path_659" data-name="Path 659" d="M13.462,0s3.249.155,3.249,2.94S16.247,15.319,13.462,19.5,8.2,33.113,8.046,33.268,4.951,52.919,4.951,52.919L0,52.455.928,28.161l4.8-12.379Z" transform="translate(65.616 37.464)" fill="#d0cde1"/>
    <path id="Path_660" data-name="Path 660" d="M0,19.352A36.995,36.995,0,0,0,15.032,30.483l.782-1.7,3.04,3a37.152,37.152,0,0,0,19.8,0l1.3-.833L32.99,22.9a45.9,45.9,0,0,1,0-4.641c.155-.619,2.186-6.235,2.186-6.235-7.057-.447-17.147-9.4-19.484-11.557C15.371.169,15.2,0,15.2,0,2.2,1.856.341,17.02.341,17.02Z" transform="translate(24.425 56.961)" fill="#2f2e41"/>
    <ellipse id="Ellipse_25" data-name="Ellipse 25" cx="0.756" cy="1.575" rx="0.756" ry="1.575" transform="translate(68.932 20.41)" fill="#a0616a"/>
    <ellipse id="Ellipse_26" data-name="Ellipse 26" cx="4.914" cy="4.914" rx="4.914" ry="4.914" transform="translate(69.562 2.268)" fill="#2f2e41"/>
    <path id="Path_661" data-name="Path 661" d="M4.347,4.914A4.913,4.913,0,0,0,0,.034a4.914,4.914,0,1,1,0,9.76A4.914,4.914,0,0,0,4.347,4.914Z" transform="translate(75.294)" fill="#2f2e41"/>
    <rect id="Rectangle_69" data-name="Rectangle 69" width="1.764" height="18.52" transform="translate(21.812 2.898)" fill="#2f2e41"/>
    <path id="Path_662" data-name="Path 662" d="M18.142,4.032S15.875,8.819,13.1,8.945,0,7.055,0,7.055L3.4,0l9.071,1.134Z" transform="translate(53.183 10.457)" fill="#2f2e41"/>
  </g>
</svg>
