<svg xmlns="http://www.w3.org/2000/svg" width="96.171" height="96.733" viewBox="0 0 96.171 96.733">
  <g id="Group_97" data-name="Group 97" transform="translate(141.351 -675.337) rotate(90)">
    <g id="Group_98" data-name="Group 98" transform="translate(-16 45)">
      <path id="Path_924" data-name="Path 924" d="M572.35,51.348v.629a4.059,4.059,0,0,1-.025.541v.112c0,.151-.018.3-.032.45v.13a.482.482,0,0,1,0,.07,4.056,4.056,0,0,1-.035.411c-.014.137-.025.218-.035.33-.032.27-.067.541-.109.811-.025.179-.053.351-.081.534a.154.154,0,0,0,0,.039c-.018.088-.032.176-.049.267s-.018.1-.028.155a.385.385,0,0,1-.028.14,1.783,1.783,0,0,0-.056.281c-.021.091-.039.186-.06.281s-.028.137-.046.207-.053.235-.081.351a.046.046,0,0,0,0,.021l-.063.242-.074.3c-.032.119-.067.239-.1.351a.122.122,0,0,1-.028.095l-.105.351c-.112.372-.235.745-.351,1.113l-.126.351-.074.193a24.937,24.937,0,0,1-3.424,6.153c-.084.119-.176.235-.263.351a26.224,26.224,0,0,1-2.16,2.458l-35.911,35.915L493.1,69.063a25.435,25.435,0,0,1-2.81-3.344,24.587,24.587,0,0,1-1.461-2.332,25.41,25.41,0,0,1-3.07-14.438c.039-.46.091-.92.155-1.377.112-.808.267-1.612.457-2.409.039-.162.081-.323.123-.481.021-.081.042-.165.063-.242s.025-.1.039-.148l.105-.351h0c.084-.277.169-.555.26-.832l.13-.379c.19-.537.393-1.054.618-1.594l.137-.313c.07-.158.141-.316.214-.474.119-.253.242-.506.351-.755l.032-.056h0c.056-.116.116-.225.176-.351l.207-.383c.088-.158.179-.316.27-.474.042-.074.088-.148.13-.225s.053-.081.077-.126a.15.15,0,0,0,0-.025h0c.056-.091.112-.183.172-.274s.13-.207.2-.309c.148-.228.3-.457.453-.681l.165-.235.207-.284c.07-.1.144-.2.221-.3l.267-.351c.084-.1.165-.207.246-.309l.088-.105.179-.218c.091-.112.186-.221.281-.33l.123-.144.021-.025.214-.239.239-.263c.225-.242.457-.485.7-.7l.277-.274.432-.407c.095-.088.19-.176.288-.26s.225-.2.351-.3l.225-.19c.074-.067.151-.13.225-.19a5.677,5.677,0,0,1,.457-.351l.232-.183c.386-.3.776-.579,1.177-.853l.239-.162.242-.158.228-.148.351-.211.169-.1.246-.144c.33-.193.66-.379.994-.555l.2-.105.309-.158.256-.126.256-.119.256-.123.26-.116.26-.112c.351-.151.7-.292,1.054-.425l.228-.14.281-.1.249-.088.211-.07.485-.155.249-.077.2-.056.2-.056q.176-.053.351-.095l.464-.119c.478-.116.959-.221,1.44-.309l.2-.035.274-.046.281-.046.351-.053.207-.028c.464-.06.927-.109,1.4-.144H512.4a2.025,2.025,0,0,1,.351.021h.239c.372.028.745.067,1.113.109l.5.067.351.049.277.046.277.046.183.032q.72.133,1.433.306l.583.151.162.046.249.07c.162.046.323.091.481.144l.211.067q.527.162,1.054.351l.239.088.313.119.471.19c.183.077.351.155.537.235l.211.091.288.137.256.119.253.126.32.162.253.133c.2.105.393.211.586.323l.246.14c.288.165.569.351.85.516l.228.148.242.158.239.162h0l.158.109c.351.235.671.481,1,.734l.232.183c.151.119.306.242.457.351.074.06.151.123.225.19l.225.19.351.3c.1.084.193.172.288.26l.4.428.277.274.281-.274.428-.407c.095-.088.19-.176.288-.26s.225-.2.351-.3l.225-.19c.074-.067.151-.13.225-.19a5.677,5.677,0,0,1,.457-.351l.232-.183c.386-.3.776-.579,1.177-.853l.239-.162.242-.158.228-.148.334-.211.169-.1.246-.144c.33-.193.66-.379.994-.555l.2-.105.309-.158.256-.126.256-.119.256-.123.26-.116.26-.112c.351-.151.7-.292,1.054-.425.084-.032.172-.067.26-.095l.277-.1.253-.088.207-.07.485-.155.249-.077.2-.056.2-.056c.116-.035.232-.067.351-.095l.46-.119c.478-.116.959-.221,1.44-.309l.2-.035.274-.046.281-.046.351-.053.207-.028c.464-.06.927-.109,1.4-.144H548.3a2.025,2.025,0,0,1,.351.021h.239c.372.028.745.067,1.113.109l.5.067.351.049.277.046.277.046.183.032q.72.133,1.433.306l.583.151.162.046.249.07c.162.046.323.091.485.144l.207.067c.351.109.7.228,1.054.351l.235.088.313.119.471.19c.183.077.351.155.537.235l.211.091.288.137.256.119.253.126.32.162.256.133c.193.105.39.211.583.323l.246.14c.288.165.572.351.85.516l.228.148.242.158.239.162h.018l.158.109c.351.235.671.481,1,.734l.232.183c.151.119.306.242.457.351.074.06.151.123.225.19l.225.19.292.26c.1.088.2.176.292.267l.165.151h0a.165.165,0,0,1,.025.025c.095.084.186.176.281.263l.126.123c.049.053.1.1.151.151l.277.284c.141.144.281.292.418.443.081.084.162.172.239.26.133.148.263.3.393.446l.414.5c.474.583.917,1.18,1.335,1.791l.169.256c.063.091.119.183.179.274l.151.235c.084.137.169.27.249.407l.221.379c.046.077.091.155.133.232l.1.183.1.183.148.277.144.277q.5.969.9,1.977l.116.284c.109.277.211.551.309.832l.088.253c.039.119.081.239.116.351s.07.214.1.323l.063.2c.032.1.06.2.088.3s.067.242.1.351c.053.2.1.393.151.594l.074.309c.035.148.067.3.1.443a.91.91,0,0,0,.039.19c.014.063.035.169.049.253s.028.133.039.2l.032.169a.315.315,0,0,0,.028.158c.028.053,0,.1.025.155l.053.316a1.957,1.957,0,0,0,.046.316c.018.105.032.235.046.351s.028.225.039.351l.021.193c0,.116.025.232.035.351v.172c0,.119.021.239.028.351a.054.054,0,0,1,0,.025v.453a2.75,2.75,0,0,0,.018.379h0v.39A4.5,4.5,0,0,1,572.35,51.348Z" transform="translate(205.67 -25.609)" fill="#ff6584"/>
      <path id="Path_925" data-name="Path 925" d="M573.637,51.348v.629a4.069,4.069,0,0,1-.025.541v.112c0,.151-.018.3-.032.45v.13a.482.482,0,0,1,0,.07,4.056,4.056,0,0,1-.035.411c-.014.137-.025.218-.035.33-.032.27-.067.541-.109.811-.025.179-.053.351-.081.534a.152.152,0,0,0,0,.039c-.018.088-.032.176-.049.267s-.018.1-.028.155a.386.386,0,0,1-.028.14,1.79,1.79,0,0,0-.056.281c-.021.091-.039.186-.06.281s-.028.137-.046.207-.053.235-.081.351a.046.046,0,0,0,0,.021l-.063.242-.074.3c-.032.119-.067.239-.1.351a.122.122,0,0,1-.028.095l-.105.351c-.112.372-.235.745-.351,1.113l-.126.351-.074.193a25.41,25.41,0,0,0-11.077-27.394q-.685-.436-1.384-.822a25.385,25.385,0,0,0-30.239,4.341,25.45,25.45,0,0,0-3.1-2.634h0a25.006,25.006,0,0,0-2.627-1.665,25.445,25.445,0,0,0-24.451,0,25.1,25.1,0,0,0-3.607,2.409,25.942,25.942,0,0,0-6.322,7.4.125.125,0,0,1,0,.032,24.117,24.117,0,0,0-1.085,2.174c-.183.407-.351.822-.509,1.236.039-.162.081-.323.123-.481.021-.081.042-.165.063-.242s.025-.1.039-.148l.105-.351h0c.084-.277.169-.555.26-.832l.13-.379c.19-.537.393-1.054.618-1.594l.137-.313c.07-.158.14-.316.214-.474.119-.253.242-.506.351-.755l.032-.056h0c.056-.116.116-.225.176-.351l.207-.383c.088-.158.179-.316.27-.474.042-.074.088-.148.13-.225s.053-.081.077-.126a.15.15,0,0,0,0-.025h0c.056-.091.112-.183.172-.274s.13-.207.2-.309c.148-.228.3-.457.453-.681l.165-.235.207-.284c.07-.1.144-.2.221-.3l.267-.351c.084-.1.165-.207.246-.309l.088-.105.179-.218c.091-.112.186-.221.281-.33l.123-.144.021-.025.214-.239.239-.263c.225-.242.457-.485.7-.7l.277-.274.432-.407c.095-.088.19-.176.288-.26s.225-.2.351-.3l.225-.19c.074-.067.151-.13.225-.19a5.677,5.677,0,0,1,.457-.351l.232-.183c.386-.3.776-.579,1.177-.853l.239-.162.242-.158.228-.148.351-.211.169-.1.246-.144c.33-.193.66-.379.994-.555l.2-.105.309-.158.256-.126.256-.119.256-.123.26-.116.26-.112c.351-.151.7-.292,1.054-.425l.235-.155.281-.1.249-.088.211-.07.485-.155.249-.077.2-.056.2-.056q.176-.053.351-.095l.464-.119c.478-.116.959-.221,1.44-.309l.2-.035.274-.046.281-.046.351-.053.207-.028c.464-.06.927-.109,1.4-.144h3.263a2.025,2.025,0,0,1,.351.021h.239c.372.028.745.067,1.113.109l.5.067.351.049.277.046.277.046.183.032q.72.133,1.433.306l.583.151.162.046.249.07c.161.046.323.091.481.144l.211.067q.527.162,1.054.351l.239.088.313.119.471.19c.183.077.351.155.537.235l.211.091.288.137.256.119.253.126.32.162.253.133c.2.105.393.211.587.323l.246.14c.288.165.569.351.85.516l.228.148.242.158.239.162h0l.158.109c.351.235.671.481,1,.734l.232.183c.151.119.306.242.457.351.074.06.151.123.225.19l.225.19.351.3c.1.084.193.172.288.26l.4.428.277.274.281-.274.428-.407c.095-.088.19-.176.288-.26s.225-.2.351-.3l.225-.19c.074-.067.151-.13.225-.19a5.678,5.678,0,0,1,.457-.351l.232-.183c.386-.3.776-.579,1.177-.853l.239-.162.242-.158.228-.148.334-.211.169-.1.246-.144c.33-.193.66-.379.994-.555l.2-.105.309-.158.256-.126.256-.119.256-.123.26-.116.26-.112c.351-.151.7-.292,1.054-.425.084-.032.172-.067.26-.095l.277-.1.253-.088.207-.07.485-.155.249-.077.2-.056.2-.056c.116-.035.232-.067.351-.095l.46-.119c.478-.116.959-.221,1.44-.309l.2-.035.274-.046.281-.046.351-.053.207-.028c.464-.06.927-.109,1.4-.144h3.231a2.025,2.025,0,0,1,.351.021h.239c.372.028.745.067,1.113.109l.5.067.351.049.277.046.277.046.183.032q.72.133,1.433.306l.583.151.162.046.249.07c.162.046.323.091.485.144l.207.067c.351.109.7.228,1.054.351l.235.088.313.119.471.19c.183.077.351.155.537.235l.211.091.288.137.256.119.253.126.32.162.256.133c.193.105.39.211.583.323l.246.14c.288.165.573.351.85.516l.228.148.242.158.239.162h.018l.158.109c.351.235.671.481,1,.734l.232.183c.151.119.306.242.457.351.074.06.151.123.225.19l.225.19.292.26c.1.088.2.176.292.267l.165.151h0a.161.161,0,0,1,.025.025c.095.084.186.176.281.263l.126.123c.049.053.1.1.151.151l.277.284c.141.144.281.292.418.443.081.084.162.172.239.26.133.148.263.3.393.446l.414.5c.474.583.917,1.18,1.335,1.791l.169.256c.063.091.119.183.179.274l.151.235c.084.137.169.27.249.407l.221.379c.046.077.091.155.133.232l.1.183.1.183.148.277.144.277q.5.969.9,1.977l.116.284c.109.277.211.551.309.832l.088.253c.039.119.081.239.116.351s.07.214.1.323l.063.2c.032.1.06.2.088.3s.067.242.1.351c.053.2.1.393.151.594l.074.309c.035.148.067.3.1.443a.91.91,0,0,0,.039.19c.014.063.035.169.049.253s.028.133.039.2l.032.169a.316.316,0,0,0,.028.158c.028.053,0,.1.025.155l.053.316a1.964,1.964,0,0,0,.046.316c.018.105.032.235.046.351s.028.225.039.351l.021.193c0,.116.025.232.035.351v.172c0,.119.021.239.028.351a.052.052,0,0,1,0,.025v.453a2.74,2.74,0,0,0,.018.379h0v.39A4.489,4.489,0,0,1,573.637,51.348Z" transform="translate(204.383 -25.609)" opacity="0.1"/>
    </g>
    <g id="Group_99" data-name="Group 99" transform="translate(23.745 -11.248)">
      <path id="Path_940" data-name="Path 940" d="M674.7,416.217s.981-.67.023-1.064a3.008,3.008,0,0,1-1.557-2.009c-.036-.4-.779-4.843,1.78-3.893s3.755,1.983,3.729,2.792-.441,5.943-.441,5.943Z" transform="translate(67.402 -292.944)" fill="#fbbebe"/>
      <path id="Path_941" data-name="Path 941" d="M674.512,436.191a1.519,1.519,0,0,1-.039.3c-.075.519-.26,1.588-.54,1.741-.371.208-.825-.33-1.529-.5-.125-.029-.234.08-.335.285a2.414,2.414,0,0,0-.112.275,39.138,39.138,0,0,0-.75,4.894c-.14.911-1.863,4-2.992,5.946-.169.293-.327.561-.462.779-.311.519-.519.859-.519.859l-2.855-5.351v-7.892a7.013,7.013,0,0,0,.519-1.093h0a1.929,1.929,0,0,0,.143-.882.451.451,0,0,0-.122-.259.315.315,0,0,1-.055-.081.4.4,0,0,1-.026-.067.855.855,0,0,1-.036-.2v-.171a16.041,16.041,0,0,1,.779-3.441,9.654,9.654,0,0,0,3.055.742C670.741,432.319,674.512,436.191,674.512,436.191Z" transform="translate(73.813 -309.391)" fill="#3f72b0"/>
      <path id="Path_942" data-name="Path 942" d="M675.679,437.457c-.075.519-.26,1.588-.54,1.741-.371.208-.825-.33-1.529-.5-.125-.029-.234.08-.335.285a2.418,2.418,0,0,0-.112.275c-1.419-.69-3.893-1.941-4.051-2.294s-1.881-.433-2.855-.449h-.177a1.317,1.317,0,0,1-.062-.6,18.008,18.008,0,0,1,.779-3.28,9.656,9.656,0,0,0,3.055.742C671.838,433.611,675.284,437.057,675.679,437.457Z" transform="translate(72.607 -310.362)" opacity="0.1"/>
      <path id="Path_943" data-name="Path 943" d="M675.763,436.171s-.208,1.83-.579,2.035-.825-.33-1.529-.493c-.125-.031-.234.078-.335.283-1.4-.68-4.01-1.988-4.152-2.349s-2.107-.444-3.031-.454c-.34-.711.716-3.893.716-3.893a9.689,9.689,0,0,0,3.055.745C672.013,432.294,675.763,436.171,675.763,436.171Z" transform="translate(72.563 -309.37)" fill="#3f72b0"/>
      <path id="Path_944" data-name="Path 944" d="M641.96,444.821c-.579.579-4.337-2.229-5.367-2.4s-4.775-15.852-4.775-15.852l.563-8.839-2.2-8.133-.285-1.064s.218-.649,1.1,0,3.026,3.415,3.6,3.62a5.169,5.169,0,0,1,2.146,1.614,4.372,4.372,0,0,0,1.279,1.155,16.132,16.132,0,0,1,.95,3.138c-.041.618.332,4.832.779,5.2s1.2,3.758,1.2,3.758,1.365,4.757,1.653,6.114a1.928,1.928,0,0,1,.039.2C642.827,434.334,642.539,444.242,641.96,444.821Z" transform="translate(99.346 -292.3)" fill="#3f72b0"/>
      <path id="Path_945" data-name="Path 945" d="M646.952,473.33l2.725.729s.519,4.708.711,4.957.856,9.908.856,9.908l-4.292-1.941-1.612-5.19V476.05Z" transform="translate(87.913 -340.492)" opacity="0.1"/>
      <path id="Path_959" data-name="Path 959" d="M585.114,305.068a20.471,20.471,0,0,1,1.715,2.214,3.031,3.031,0,0,0,2.356,1.318,6.318,6.318,0,0,1,.825-.07,1.778,1.778,0,0,1,.89.389,5.694,5.694,0,0,1,1.92,3.633c.252,1.375.26,2.808.633,4.168a2.076,2.076,0,0,0,.7,1.217,3.019,3.019,0,0,0,1.793.231,3.168,3.168,0,0,1,2.263.747,1.8,1.8,0,0,1,.353,2.221,1.353,1.353,0,0,0-.291.5.929.929,0,0,0,.26.667l1.7,2.31a2.464,2.464,0,0,1,.657,1.557,1.22,1.22,0,0,1-2.149.7c.184.574-.381,1.168-.978,1.246a3.141,3.141,0,0,1-1.721-.452l-.044.978c-.5.26-1.025-.26-1.422-.664s-1.215-.638-1.4-.109a.685.685,0,0,0,.161.644c.693.864,2.318.644,2.8,1.645a1.35,1.35,0,0,1-.828,1.726,2.267,2.267,0,0,1-2.029-.415c-.579-.415-1.144-1.139-1.9-1.134-.942,0-1.505,1.09-2.385,1.43a2.434,2.434,0,0,1-2.421-.7c-.646-.607-1.1-1.394-1.692-2.053-1.536-1.695-3.864-2.367-6.034-3.091s-4.466-1.71-5.587-3.7a15.148,15.148,0,0,0-.986-1.861c-.732-.955-1.962-1.4-2.764-2.3a3.548,3.548,0,0,1-.542-3.792,12.706,12.706,0,0,1,1.58-2.133,7.173,7.173,0,0,0,1.409-4.209,5.334,5.334,0,0,1,.122-1.7,2.65,2.65,0,0,1,1.923-1.583,7.9,7.9,0,0,1,2.6-.06,23.8,23.8,0,0,0,2.839.259c.628-.029,1.111-.519,1.718-.685A4.2,4.2,0,0,1,585.114,305.068Z" transform="translate(144.709 -215.106)" fill="#3f3d56"/>
      <path id="Path_965" data-name="Path 965" d="M592.114,362.39s.6,6.716-2.149,8.751,5.891,7.6,5.891,7.6l6.553-1.433s-3.195-2.971-3.195-4.238.55-8.37,1.432-9.195S592.114,362.39,592.114,362.39Z" transform="translate(129.317 -258.343)" fill="#fbbebe"/>
      <path id="Path_966" data-name="Path 966" d="M546.386,286.957l-1.5,3.273s-2.232,1.324-2.4,1.446-1.941,2.149-1.941,2.149l-4.378,2.808s-.106-.2-.26-.483a13.066,13.066,0,0,0-1.017-1.625c-.371-.413,0-4.788,0-4.788a3.434,3.434,0,0,0,.558-2.766c-.309-1.775-.35-8.754-.35-8.754s-.33-5.865.125-7.1-1.038-5.162-1.038-5.162-4.209-4.183-3.921-5.048,3.511,0,3.511,0a7.264,7.264,0,0,0,1.939.7c.4.023,2.536.034,4.173.036h1.939s1.362,4.747,1.2,5.242c-.034.1-.068.192-.1.285-.132.382-.234.721-.068.952a32.484,32.484,0,0,1,.662,3.8l.454,3.8a32.822,32.822,0,0,1,.659,3.387c-.042.415-1.074,1.279-.62,2.063a11.454,11.454,0,0,1,.623,3.179,9.037,9.037,0,0,0,1.508,2.427,1.273,1.273,0,0,0,.236.179Z" transform="translate(173.131 -182.911)" fill="#3f72b0"/>
      <circle id="Ellipse_47" data-name="Ellipse 47" cx="7.928" cy="7.928" r="7.928" transform="translate(718.553 92.656)" opacity="0.1"/>
      <circle id="Ellipse_48" data-name="Ellipse 48" cx="7.928" cy="7.928" r="7.928" transform="translate(718.553 92.327)" fill="#fbbebe"/>
      <path id="Path_967" data-name="Path 967" d="M581.952,407.042c-.716.779-.88,8.3-.457,8.974s-2.131,1.983-3.618,1.926a27.959,27.959,0,0,0-5.556,1.212s-8.152-2.2-9.862-1.1-4.129-1.983-3.413-3.083-.779-2.642-.991-3.247a4.837,4.837,0,0,1-.088-.779h0c-.2-2.772-.407-11.652-.407-11.652V389.1l7.49-5.286a35.918,35.918,0,0,1,3.475,2.011,17.019,17.019,0,0,1,2.247,1.731c2.04,1.928,7.1,3.966,7.1,3.966s5.562,6.662,6.275,7.324S582.666,406.271,581.952,407.042Z" transform="translate(152.912 -274.204)" fill="#e2e2e2"/>
      <path id="Path_972" data-name="Path 972" d="M562.532,361.887l-1.5,3.273s-2.232,1.324-2.4,1.446-1.941,2.149-1.941,2.149l-4.378,2.808s-.106-.2-.26-.483a30.476,30.476,0,0,1,3.114-3.524c1.4-1.072-.042-1.2,0-1.4s3.1-1.321,3.924-2.1a34.66,34.66,0,0,1,3.2-2.336A1.267,1.267,0,0,0,562.532,361.887Z" transform="translate(156.985 -257.84)" opacity="0.1"/>
      <path id="Path_973" data-name="Path 973" d="M517.219,362.39a37.387,37.387,0,0,0-3.439,2.476c-.825.784-3.893,1.9-3.924,2.107s1.4.33,0,1.4-4.83,6.109-6.07,6.488-9.7,3.893-9.7,3.893-2.766,2.6-3.179,2.6,2.517,2.808,2.517,2.808,2.642,2.107,2.933,2.437,7.521,4.238,7.521,4.238,1.24.371,1.362.742,1.775,1.4,1.775,1.4,1.845,2.12,1.666,2.875-.5-21.54-.5-21.54,9.4.742,9.815-.166a6.721,6.721,0,0,1,1.2-1.692s-.026-7.638-.553-8.2S517.229,363.091,517.219,362.39Z" transform="translate(202.297 -258.343)" fill="#3f72b0"/>
      <path id="Path_974" data-name="Path 974" d="M508.2,414.562s2.476,2.683,3.633,3.138a3.127,3.127,0,0,1,1.609,1.653,9.453,9.453,0,0,0,2.107.908,5.218,5.218,0,0,1,1.858,1.238s2.767.779,2.767,1.362,1.116,1.365,1.116,1.365l-.278-15.857s-4.6.576-5.917,2.517S508.2,414.562,508.2,414.562Z" transform="translate(189.462 -292.391)" opacity="0.1"/>
      <path id="Path_975" data-name="Path 975" d="M529,416.319c.208-.125,5.844-7.386,5.844-7.386l1.038-.213a41.518,41.518,0,0,0-2.634,4.337C533.29,413.386,529,416.319,529,416.319Z" transform="translate(174.06 -292.65)" opacity="0.1"/>
      <path id="Path_976" data-name="Path 976" d="M538.11,423.036s1.487-3.428,1.9-4.007,2.634-4.459,2.634-4.459a2.612,2.612,0,0,1,0,.991C542.527,415.932,538.11,423.036,538.11,423.036Z" transform="translate(167.315 -296.981)" opacity="0.1"/>
      <path id="Path_977" data-name="Path 977" d="M567.8,348.7s-3.3,6.029-3.013,6.319S567.8,348.7,567.8,348.7Z" transform="translate(147.573 -248.205)" opacity="0.1"/>
      <path id="Path_978" data-name="Path 978" d="M573.793,357.93a39.809,39.809,0,0,0-2.478,3.932A39.813,39.813,0,0,0,573.793,357.93Z" transform="translate(142.738 -255.04)" opacity="0.1"/>
      <path id="Path_979" data-name="Path 979" d="M540.943,222.587l-5.2.371s0-.169-.018-.459c-.073-1.718-.335-7.708-.475-8.377-.166-.779-.332-2.188-.332-2.188s-2.808-.413-2.766-.867-3.592-5.286-.825-5.19c2.159.065,5.85,2.616,7.368,3.734a1.386,1.386,0,0,1,.553,1.282,5.561,5.561,0,0,0-.047.986,13.843,13.843,0,0,1-.055,2.048,3.141,3.141,0,0,0,.234,1.736,32.607,32.607,0,0,1,1.3,5.364C540.834,221.927,540.943,222.587,540.943,222.587Z" transform="translate(173.11 -142.447)" fill="#fbbebe"/>
      <path id="Path_982" data-name="Path 982" d="M555.03,270.087c-.034.1-.067.192-.1.285-1.129-1.121-8.2-1.835-8.2-1.835-.62-.721-.065-1.038.6-1.918.387-.519,2.7-1.259,4.565-1.78h1.939S555.193,269.592,555.03,270.087Z" transform="translate(161.131 -186.11)" fill="#3f72b0"/>
      <path id="Path_983" data-name="Path 983" d="M596.086,442.57s-.579,11.107,0,11.645S596.086,442.57,596.086,442.57Z" transform="translate(124.575 -317.715)" opacity="0.1"/>
      <path id="Path_984" data-name="Path 984" d="M612.307,460.55s-.208,12.223,0,12.345S612.307,460.55,612.307,460.55Z" transform="translate(112.44 -331.029)" opacity="0.1"/>
      <path id="Path_985" data-name="Path 985" d="M631,466.12s.779,8.424,1.487,8.754S631,466.12,631,466.12Z" transform="translate(98.53 -335.153)" opacity="0.1"/>
      <path id="Path_986" data-name="Path 986" d="M642,433.754a1.721,1.721,0,0,1-.662-.259c-.7-.454-1.487-5.328-2.517-5.987s-4.749-7.145-4.749-7.145a34.088,34.088,0,0,0-2.024-3.262c-.579-.667-.288-3.633-.288-3.633a16.179,16.179,0,0,1-2.19-3.262,2.958,2.958,0,0,1-.285-1.061s.221-.651,1.1,0,3.026,3.415,3.6,3.62a5.177,5.177,0,0,1,2.149,1.612,4.471,4.471,0,0,0,1.279,1.157,16.074,16.074,0,0,1,.95,3.138c-.042.62.33,4.83.779,5.2s1.2,3.755,1.2,3.755S641.708,432.4,642,433.754Z" transform="translate(99.805 -292.75)" opacity="0.1"/>
      <path id="Path_989" data-name="Path 989" d="M642.637,433.118a1.628,1.628,0,0,1-.662-.26c-.7-.454-1.487-5.325-2.52-5.987s-4.747-7.142-4.747-7.142a34.08,34.08,0,0,0-2.024-3.262c-.579-.667-.288-3.633-.288-3.633a16.263,16.263,0,0,1-2.19-3.262,2.985,2.985,0,0,1-.286-1.064s.218-.649,1.1,0,3.026,3.415,3.6,3.62a5.169,5.169,0,0,1,2.146,1.614,4.373,4.373,0,0,0,1.28,1.155,16.136,16.136,0,0,1,.95,3.138c-.042.618.332,4.832.779,5.2s1.2,3.758,1.2,3.758S642.349,431.76,642.637,433.118Z" transform="translate(99.33 -292.278)" fill="#3f72b0"/>
      <circle id="Ellipse_49" data-name="Ellipse 49" cx="0.558" cy="0.558" r="0.558" transform="translate(732.985 124.3)" fill="#3f3d56"/>
      <circle id="Ellipse_50" data-name="Ellipse 50" cx="0.558" cy="0.558" r="0.558" transform="translate(736.65 129.317)" fill="#3f3d56"/>
      <path id="Path_990" data-name="Path 990" d="M670.39,454.037s-2.686-1.228-2.273-.566S670.39,454.037,670.39,454.037Z" transform="translate(71.078 -325.641)" opacity="0.1"/>
      <path id="Path_991" data-name="Path 991" d="M670.639,461.831s-2.728-.742-2.149-.309A4.385,4.385,0,0,0,670.639,461.831Z" transform="translate(70.83 -331.649)" opacity="0.1"/>
      <path id="Path_992" data-name="Path 992" d="M671.05,467.926s-1.858-1.344-1.4-.849A4.37,4.37,0,0,0,671.05,467.926Z" transform="translate(69.968 -335.78)" opacity="0.1"/>
      <path id="Path_993" data-name="Path 993" d="M679.209,476.14s-1.894,3.727-.989,3.971S679.209,476.14,679.209,476.14Z" transform="translate(63.747 -342.573)" opacity="0.1"/>
      <path id="Path_1002" data-name="Path 1002" d="M592.58,319.784a18.419,18.419,0,0,0,1.718-.838,2.372,2.372,0,0,1,1.848-.182,3.065,3.065,0,0,1,.81.568c.519.459,1.038.919,1.526,1.409a8.864,8.864,0,0,0,1.591,1.42c1.362.833,3.093.646,4.671.4a2.812,2.812,0,0,0,.921-.26,1.912,1.912,0,0,0,.8-2.063,4.623,4.623,0,0,0-1.186-2.022,16.569,16.569,0,0,0-5.416-4c-2.185-1-4.786-1.505-6.966-.5a7.629,7.629,0,0,0-1.817,1.24c-.758.675-2.717,2.393-2.284,3.553C589.271,319.81,591.451,320.165,592.58,319.784Z" transform="translate(129.83 -221.89)" fill="#3f3d56"/>
      <path id="Path_1003" data-name="Path 1003" d="M605.642,335.639a2.786,2.786,0,0,1-.919.26c-1.578.26-3.306.433-4.671-.4a8.967,8.967,0,0,1-1.6-1.433c-.488-.493-1.01-.95-1.526-1.409a3.016,3.016,0,0,0-.81-.571,2.367,2.367,0,0,0-1.85.184,18.367,18.367,0,0,1-1.715.838c-1.129.379-3.309.023-3.8-1.277a.973.973,0,0,1-.049-.195,1.078,1.078,0,0,0,.049.519c.488,1.3,2.668,1.656,3.8,1.277a18.7,18.7,0,0,0,1.715-.838,2.365,2.365,0,0,1,1.85-.182,2.949,2.949,0,0,1,.81.568c.519.459,1.038.919,1.526,1.409a8.965,8.965,0,0,0,1.591,1.42c1.362.833,3.091.646,4.671.4a2.854,2.854,0,0,0,.919-.26,1.844,1.844,0,0,0,.838-1.78A1.744,1.744,0,0,1,605.642,335.639Z" transform="translate(129.858 -235.573)" opacity="0.1"/>
    </g>
  </g>
</svg>
