<svg xmlns="http://www.w3.org/2000/svg" width="118.468" height="212.405" viewBox="0 0 118.468 212.405">
  <g id="Group_65" data-name="Group 65" transform="translate(162.115 -965.536) rotate(90)">
    <g id="Group_64" data-name="Group 64" transform="translate(1039.404 58.504)">
      <path id="Path_501" data-name="Path 501" d="M564.072,220.81c-2.506.972-5.337,2.294-5.988,4.9a6,6,0,0,0,.157,3.027,9.989,9.989,0,0,0,4.813,5.981c2.879,1.547,6.454,1.632,9.081,3.557a7.821,7.821,0,0,1,3.051,4.91,12.646,12.646,0,0,0,.457,2.461c.808,2.092,3.351,2.906,5.591,3.027a5.08,5.08,0,0,1,3.082.766,4.447,4.447,0,0,1,.829,1.066c1.744,2.782,3.548,5.751,3.566,9.042a15,15,0,0,1-2.364,7.265c-1.662,2.915-3.705,5.779-4.086,9.111-.448,3.935,1.513,7.731,1.768,11.675a13.924,13.924,0,0,1-4.662,11.221" transform="translate(-608.207 106.387) rotate(-30)" fill="none" stroke="#444053" stroke-width="1"/>
      <path id="Path_573" data-name="Path 573" d="M596.641,301.85a4.184,4.184,0,0,0-.244,6.325c2.306,1.917,5.751.715,8.73,1.038s5.593,2.28,7.486,4.624a19.668,19.668,0,0,1,3.9,16.047c-.583,2.853-1.8,5.547-2.355,8.406a33.864,33.864,0,0,0,.08,10.429,20.355,20.355,0,0,0,1.948,7.508c2,3.615,5.89,5.745,9.77,7.124s7.986,2.23,11.6,4.209a20.9,20.9,0,0,1,10.054,12.984,2.088,2.088,0,0,1,.031,1.3.765.765,0,0,1-1.068.421" transform="translate(-660.668 69.316) rotate(-30)" fill="none" stroke="#444053" stroke-width="1"/>
      <path id="Path_574" data-name="Path 574" d="M566.468,321.42a2.318,2.318,0,0,0,1.372,2.473,2.913,2.913,0,0,0,2.713-.469c.971-.69,1.842-1.849,3-1.805a2.913,2.913,0,0,1,2.075,1.444,12.47,12.47,0,0,0,1.6,2.166,4.639,4.639,0,0,0,1.916.975,4.925,4.925,0,0,0,2.515.134c1.787-.437,3.1-2.213,4.856-2.78,2.324-.747,4.726.784,6.587,2.506a17.592,17.592,0,0,1,5.163,7.643,35.251,35.251,0,0,1,.971,6.3,14.076,14.076,0,0,0,1.78,6.026c1.114,1.737,3.078,2.953,4.946,2.484" transform="translate(-652.82 46.061) rotate(-30)" fill="none" stroke="#444053" stroke-width="1"/>
      <path id="Path_576" data-name="Path 576" d="M909.261,299.161v1.686l-7.083,1.965s-.648-.366-1.656-.848a22.781,22.781,0,0,0-7.45-2.349c-3.872-.251-16.6-4.08-12.768-4.943s3.529,0,3.529,0,3.72-4.743,8.624-1.489c3.723,2.476,11.488,4.64,15.005,5.539C908.577,298.992,909.261,299.161,909.261,299.161Z" transform="translate(-782.234 -270.48)" fill="#efb7b9"/>
      <path id="Path_577" data-name="Path 577" d="M795.654,263.725a12.665,12.665,0,0,0-3.572-.433,4.29,4.29,0,0,0-3.151,1.532c-.4.542-.62,1.211-1.014,1.747-1.886,2.633-6.39,1.438-8.794,3.611-1.483,1.341-1.71,3.539-2.04,5.512s-1.111,4.2-3,4.858a11.185,11.185,0,0,1-2.83.26,2.812,2.812,0,0,0-2.422,1.262c-.717,1.477.823,3.6-.357,4.746-1.053,1.017-3.33.085-3.984,1.4a1.8,1.8,0,0,0,.536,1.943,14.71,14.71,0,0,1,1.547,1.489,2.546,2.546,0,0,1-2,4c-.832.027-1.774-.33-2.44.176a1.729,1.729,0,0,0-.551,1.441,3.572,3.572,0,0,0,3.657,3.33,8.027,8.027,0,0,0,3.772-1.816c1.165-.793,2.573-1.538,3.935-1.178a6.425,6.425,0,0,1,1.768.929,18.048,18.048,0,0,0,5.358,2.3c1.671.415,3.572.548,4.992-.427,1.607-1.1,2.21-3.357,3.935-4.238,1.816-.923,3.969.051,5.839.863s4.32,1.359,5.727-.115c1.514-1.589.639-4.262,1.423-6.314a5.948,5.948,0,0,1,1.417-2.034c1.041-1.047,2.273-1.889,3.33-2.924a6.1,6.1,0,0,0,2.037-3.82c.115-1.774-.935-3.4-2.068-4.774a13.819,13.819,0,0,1-2.951-4.4c-.394-1.265-.33-2.649-.808-3.887a4.874,4.874,0,0,0-3.578-2.909c-.908-.182-1.041-.088-1.568-.784A3.112,3.112,0,0,0,795.654,263.725Z" transform="translate(-699.939 -250.421)" fill="#925978"/>
      <path id="Path_591" data-name="Path 591" d="M861.673,341.084l-.957,10.25-.2,2.119-4.138,1.081-4.265,1.117-4.943-1.1s-1.9-4.314-1.253-7.825a5.013,5.013,0,0,1,1.816-3.163,4.482,4.482,0,0,0,.82-.823,3.919,3.919,0,0,0,.621-1.187,4.59,4.59,0,0,0,.2-1.632,11.307,11.307,0,0,0-2.192-5.418s9.556-4.722,9.063-2.422c-.321,1.5,1.414,3.8,2.67,5.231.684.778,1.211,1.3,1.211,1.3Z" transform="translate(-758.659 -297.961)" fill="#efb7b9"/>
      <circle id="Ellipse_22" data-name="Ellipse 22" cx="8.76" cy="8.76" r="8.76" transform="translate(83.598 22.705)" fill="#efb7b9"/>
      <path id="Path_592" data-name="Path 592" d="M848.66,398.012a22.017,22.017,0,0,1-1.653,5.32l-11.742,4.648-9.841-8.049v-.055c.157-.9,2.067-12.223-.669-14.589-2.857-2.464-2.915-10.449-2.915-10.449s3.681-5.656,4.407-7,6.236-3.053,6.236-3.053c-.236.422-.442.826-.621,1.208a11.067,11.067,0,0,0-1,3.173,4.575,4.575,0,0,0,.53,3.225,3.556,3.556,0,0,1,.4.785c1.486,4.1,5.73,2.93,7.4,2.283a6.566,6.566,0,0,0,.687-.308l4.153-.413,2.6-.256s1.483,20.947,1.977,22.576a2.55,2.55,0,0,1,.045.949Z" transform="translate(-741.962 -321.955)" fill="#444053"/>
      <path id="Path_616" data-name="Path 616" d="M884.962,364.573a8.594,8.594,0,0,0-2.307,5.216c-.275,3.293-1.429,3.514-1.429,3.514l-.054,9.341s-.881,2.143.109,3.13-8.237,2.694-8.237,2.694L863,389.4l-1.383-10.437a14.906,14.906,0,0,1,3.678-3.181c1.756-.875,3.681-3.187,2.252-8.624a9.108,9.108,0,0,1,1.625-8.418c.085-.1.133-.148.133-.148l.636-7.789a3.564,3.564,0,0,1,2.77,1.141,7.21,7.21,0,0,0,.711.766,1.56,1.56,0,0,0,2.089.336c.99-.605,5.273-3.112,6.535-1.365S884.962,364.573,884.962,364.573Z" transform="translate(-769.701 -311.451)" fill="#3f72b0"/>
      <path id="Path_620" data-name="Path 620" d="M949.738,318.916s-7.368,7.265-12.3,8.939c0,0-6.862,3.027-9.332,5.839l-4.613-11.37,1.7-1.529s2.422,1.087,4.283.375,3.953-1.256,3.953-1.256a32.25,32.25,0,0,1,5-2.095c1.362-.3.572-2-.923-2.773a3.3,3.3,0,0,0-.605-.248,1.79,1.79,0,0,1-2.249.823,5.306,5.306,0,0,1-1.513-1.075h0a17.007,17.007,0,0,1-1.816-2.1s4.147-1.468,6.181-2.4c.663-.3,1.1-.551,1.1-.672,0-.5-4.062-1.538-4.062-1.538s3.1-2.031,4.6-1.044c0,0-.781.769,0,1.32s10.116,5.954,10.116,5.954S953.694,315.569,949.738,318.916Z" transform="translate(-812.842 -280.573)" fill="#3f72b0"/>
      <path id="Path_623" data-name="Path 623" d="M959.624,321.175l-4.725,1.32a1.789,1.789,0,0,1-2.249.823c-1.48-.605-3.33-3.184-3.33-3.184s4.147-1.468,6.181-2.4Z" transform="translate(-830.854 -288.392)" fill="#fff" opacity="0.1"/>
      <path id="Path_634" data-name="Path 634" d="M838.86,293.595c-.63.548-1.1,1.35-1.907,1.565a3.265,3.265,0,0,1-1.741-.2,6.261,6.261,0,0,0-4.4-.021c-1.928.929-2.724,3.4-4.652,4.341a3.611,3.611,0,0,1-1.907.357,3.513,3.513,0,0,1-1.144-.3,3.554,3.554,0,0,1-1.853-1.965,4.535,4.535,0,0,1,1.011-4.432,9.482,9.482,0,0,1,4.014-2.494c3.911-1.423,8.14-1.668,12.3-1.9a1.816,1.816,0,0,1,.993.133c.687.381,2.064,2.585,1.943,3.411C841.354,293.21,838.86,292.7,838.86,293.595Z" transform="translate(-741.395 -268.028)" fill="#925978"/>
      <path id="Path_635" data-name="Path 635" d="M659.114,332.305l-.605,5.476-1.844-.805-9.989-4.38s-7.041.66-8.321-4.9,7.786-1.072,8.279-.7a18.57,18.57,0,0,0,1.607.984l9.248,3.678Z" transform="translate(-613.933 -293.411)" fill="#efb7b9"/>
      <path id="Path_637" data-name="Path 637" d="M837.369,385.066l-.439,11.312-11.466-.878c.157-.884,2.068-12.011-.669-14.336-2.858-2.422-2.915-10.268-2.915-10.268s3.669-5.549,4.4-6.865,6.236-3,6.236-3a4.589,4.589,0,0,0,.2-1.632,6.29,6.29,0,0,1,.584,1.123,4.524,4.524,0,0,1-2.4,4.813c-.179.115-.366.227-.566.339-.324.179-.675.357-1.059.53l-.173.079c-3.46,1.538-3.956,3.79-3.956,3.79a8.3,8.3,0,0,0-.878,6.018C825.068,379.472,837.369,385.066,837.369,385.066Z" transform="translate(-741.99 -317.448)" opacity="0.1"/>
      <path id="Path_638" data-name="Path 638" d="M752.58,376.042l-.439,11.312-12.907-.987s-.163-4.238.493-6.054-.381-8.4-.381-8.4c-6.1-5.055-3.9-10.107-3.9-10.107s-16.043-.493-16.364-.932-5.93-2.585-5.93-2.585-5.879-.711-6.756-1.426a6.879,6.879,0,0,0-1.041-.72,2.77,2.77,0,0,0-.33-.16l.054,3.681a.884.884,0,0,1-.127,0h-.07a5.191,5.191,0,0,1-2.661-.63c-1.426-.823-1.211-11.921,0-12.465a1.471,1.471,0,0,1,.727-.1,8.142,8.142,0,0,1,2.9,1.114l.242.145.088.054s7.468,1.859,9.06,2.957,12.865,1.268,12.865,1.268,5.107.527,5.658-.269,7.961-2.936,8.73-1.946S745,350.4,745,350.4c1.056-1.6,1.992-1.153,2.627-.4a5.806,5.806,0,0,1,.875,1.514c.272,2.2-.49,3.769-2.97,5.146-.372.206-.781.409-1.232.605-3.46,1.538-3.953,3.79-3.953,3.79a8.291,8.291,0,0,0-.881,6.018C740.278,370.448,752.58,376.042,752.58,376.042Z" transform="translate(-657.861 -308.424)" fill="#3f72b0"/>
      <path id="Path_639" data-name="Path 639" d="M703.705,346.44a1.107,1.107,0,0,0-.4.1c-1.211.545-1.426,11.642,0,12.465a5.177,5.177,0,0,0,2.331.669h.07a.887.887,0,0,0,.127,0l-.055-3.681a2.747,2.747,0,0,1,.33.16v-.16a9.505,9.505,0,0,1,.739-8.282Z" transform="translate(-658.621 -308.411)" opacity="0.1"/>
      <path id="Path_642" data-name="Path 642" d="M842.878,364.79l-2.028-1.462,4.123-5.2a5.808,5.808,0,0,1,.875,1.514C846.12,361.838,845.357,363.406,842.878,364.79Z" transform="translate(-755.218 -316.563)" fill="#4c4981"/>
      <path id="Path_643" data-name="Path 643" d="M842.878,364.4l-2.028-1.462,4.123-5.2a5.858,5.858,0,0,1,.875,1.514C846.12,361.451,845.357,363.016,842.878,364.4Z" transform="translate(-755.218 -316.291)" opacity="0.1"/>
      <path id="Path_644" data-name="Path 644" d="M838.86,300.046c-.63.545-1.1,1.347-1.907,1.562a3.293,3.293,0,0,1-1.741-.2,6.236,6.236,0,0,0-4.4-.021c-1.925.929-2.724,3.4-4.653,4.341a3.633,3.633,0,0,1-1.9.354,3.5,3.5,0,0,1-3.209-3.215,3.663,3.663,0,0,0,.212,1.613,3.541,3.541,0,0,0,1.853,1.965,3.494,3.494,0,0,0,1.144.3,3.6,3.6,0,0,0,1.9-.357c1.922-.941,2.724-3.411,4.653-4.341a6.269,6.269,0,0,1,4.4.021,3.265,3.265,0,0,0,1.741.2c.8-.215,1.277-1.017,1.907-1.565,0-.908,2.494-.4,2.655-1.5a1.344,1.344,0,0,0-.051-.49C841.079,299.592,838.86,299.2,838.86,300.046Z" transform="translate(-741.396 -275.136)" opacity="0.1"/>
      <path id="Path_646" data-name="Path 646" d="M648.17,325.25s7.18,4.743,2.633,6.248S648.17,325.25,648.17,325.25Z" transform="translate(-619.374 -293.635)" fill="#efb7b9"/>
    </g>
    <path id="Path_515" data-name="Path 515" d="M33.545,26.358a53.853,53.853,0,0,1-7.19,12.357c-2.207,2.684-4.685,4.717-7.38,5.491a8.293,8.293,0,0,1-3.585.232,9.031,9.031,0,0,1-2.343-.695c-5.259-2.3-9.916-9.413-11.956-16.9C-.32,21.644-.477,16.283,1.3,12.221c4.344-9.9,15.082-14.777,24-10.877S37.887,16.443,33.545,26.358Z" transform="translate(988.95 68.902) rotate(-45)" fill="#3f72b0"/>
    <path id="Path_544" data-name="Path 544" d="M38.171,33.942a8.283,8.283,0,0,1-2.112,2.915,9.168,9.168,0,0,1-2.029,1.364,12.857,12.857,0,0,1-3.277,1.093c-.463.1-.926.167-1.417.232a.255.255,0,0,0-.093.012c-5.572.644-12.616-1.007-18.264-4.168C7.133,33.242,3.938,30.4,2.287,27.108-2.56,17.428.55,6.054,9.234,1.7S28.9,1.656,33.743,11.345a61.571,61.571,0,0,1,4.168,10.337c.093.32.178.632.259.947C39.268,26.823,39.532,30.848,38.171,33.942Z" transform="translate(965.536 100.987) rotate(-45)" fill="#3f72b0"/>
    <path id="Path_516" data-name="Path 516" d="M33.545,26.358a53.853,53.853,0,0,1-7.19,12.357c-2.207,2.684-4.685,4.717-7.38,5.491a8.293,8.293,0,0,1-3.585.232,9.031,9.031,0,0,1-2.343-.695c-5.259-2.3-9.916-9.413-11.956-16.9C-.32,21.644-.477,16.283,1.3,12.221c4.344-9.9,15.082-14.777,24-10.877S37.887,16.443,33.545,26.358Z" transform="translate(989.191 68.656) rotate(-45)" opacity="0.1"/>
    <path id="Path_545" data-name="Path 545" d="M38.171,33.942a8.283,8.283,0,0,1-2.112,2.915,9.168,9.168,0,0,1-2.029,1.364,12.857,12.857,0,0,1-3.277,1.093c-.463.1-.926.167-1.417.232a.255.255,0,0,0-.093.012c-5.572.644-12.616-1.007-18.264-4.168C7.133,33.242,3.938,30.4,2.287,27.108-2.56,17.428.55,6.054,9.234,1.7S28.9,1.656,33.743,11.345a61.571,61.571,0,0,1,4.168,10.337c.093.32.178.632.259.947C39.268,26.823,39.532,30.848,38.171,33.942Z" transform="translate(965.777 100.741) rotate(-45)" opacity="0.1"/>
    <path id="Path_567" data-name="Path 567" d="M33.757,11.337c4.851,9.677,8.964,22.53.276,26.885S7.141,36.792,2.289,27.107.55,6.053,9.236,1.7,28.906,1.66,33.757,11.337Z" transform="translate(1001.503 93.632) rotate(-45)" fill="#3f72b0"/>
    <path id="Path_550" data-name="Path 550" d="M2.333,0S-1.325,3.74.52,7.01A4.152,4.152,0,0,1,1.743,5.6a2.642,2.642,0,0,0,.926-.824A6.937,6.937,0,0,1,2.333,0Z" transform="translate(974.013 105.756) rotate(-45)" fill="#fff" opacity="0.1"/>
    <path id="Path_572" data-name="Path 572" d="M2.333,0S-1.326,3.74.52,7.01A4.2,4.2,0,0,1,1.743,5.6a2.642,2.642,0,0,0,.926-.824A6.953,6.953,0,0,1,2.333,0Z" transform="translate(1009.741 98.648) rotate(-45)" fill="#fff" opacity="0.1"/>
  </g>
</svg>
