<svg xmlns="http://www.w3.org/2000/svg" width="92.419" height="80.576" viewBox="0 0 92.419 80.576">
  <g id="Group_84" data-name="Group 84" transform="translate(121.419 10) rotate(90)">
    <path id="Path_745" data-name="Path 745" d="M28.568,43.759a57.065,57.065,0,0,0,12.611-22.7c1.235-4.381,1.959-9.363.108-13.685C39.854,4.033,36.8,1.008,33.019.728c-3.992-.3-8.424,3.4-7.569,7.629.064.316-.352.649-.6.348C21.656,4.8,17.263,1.212,12.029.86,7.366.546,2.468,2.876,1.11,7.612-.3,12.546,2.136,17.765,5.554,21.253c3.792,3.87,8.727,6.284,13.386,8.919C23.523,32.765,28.185,35.76,31,40.344a16.164,16.164,0,0,1,2.418,7.018,12.564,12.564,0,0,1-1.67,7.257c-1.324,2.385-2.962,4.56-4.158,7.023a35.55,35.55,0,0,0-2.667,7.632A36.028,36.028,0,0,0,24.9,85.25c3.6,9.363.832,5.176.389,3.918a36.669,36.669,0,0,1,3.549-31.246c1.512-2.4,3.258-4.737,3.755-7.6a13.3,13.3,0,0,0-1.214-7.759c-2.374-5.129-7.079-8.463-11.832-11.214S9.726,26.214,5.7,22.4C2.114,19-.53,14.156.091,9.078A9.75,9.75,0,0,1,3.135,3.016,11.471,11.471,0,0,1,9.267.25c5.074-.715,9.831,1.692,13.448,5.1A30.074,30.074,0,0,1,25.358,8.2l-.6.348c-.772-3.816,2.261-7.321,5.813-8.287,3.863-1.05,7.691,1.209,9.917,4.27,2.78,3.824,3.008,8.727,2.195,13.236a50.72,50.72,0,0,1-4.708,13.5,58.1,58.1,0,0,1-8.9,13c-.31.342-.815-.165-.506-.506Z" transform="translate(-8.373 30.199)" fill="#3f3d56"/>
    <path id="Path_744" data-name="Path 744" d="M16.78,30.451c-4.836-2.658-9.747-5.506-13.164-9.817C.047,16.131-1.476,9.4,1.831,4.7,4.609.761,10.14-.626,14.852.514S23.509,4.9,26.573,8.629c-1-4.583,3.871-9.009,8.582-8.6s8.491,4.49,9.749,9.011.439,9.359-.91,13.854A61.124,61.124,0,0,1,33.054,43.6a19.992,19.992,0,0,0-2.735-3.79C26.6,35.758,21.615,33.109,16.78,30.451Z" transform="translate(-10 29)" fill="#ff6584"/>
    <g id="Group_85" data-name="Group 85" transform="translate(-12.774 -14.367)">
      <path id="Path_751" data-name="Path 751" d="M5.257,16.648,16.21,12.924C12.248,9.045,10.63,4.787,12.267,0L0,2.191C2.911,7.8,6.722,11.179,5.257,16.648Z" transform="translate(61.468 71.386)" fill="#efb7b9"/>
      <path id="Path_752" data-name="Path 752" d="M0,49.566c9.963,7.926,20.107,8.839,30.5.018-4.19-13.155,4.358-25.525,3.113-34.863C32.836,8.894,30.413,1.678,24.779,0L18.728,1.849A12.819,12.819,0,0,0,10.058,10.9l-.716,2.786C5.878,17.373,4.723,22.216,5.623,28.1c-.76,1.668-.411,3.773-.062,5.88.33,2,.66,4.012.037,5.647A54.277,54.277,0,0,1,0,49.566" transform="translate(49.612 79.927)" fill="#3f72b0"/>
      <ellipse id="Ellipse_40" data-name="Ellipse 40" cx="9.857" cy="9.857" rx="9.857" ry="9.857" transform="translate(54.677 58.898)" fill="#efb7b9"/>
      <path id="Path_755" data-name="Path 755" d="M5.358,7.971l6.905-2.26L11.76.17,4.178,0A4.087,4.087,0,0,0,.05,4.724h0A4.087,4.087,0,0,0,5.358,7.971Z" transform="translate(25.326 116.912)" fill="#efb7b9"/>
      <path id="Path_756" data-name="Path 756" d="M0,33.493a88.8,88.8,0,0,0,14.091-8.8C23.812,17.52,21.339,0,21.339,0L8.367,13.031a8.744,8.744,0,0,1,.028,4.3C6.274,22.966,1.426,27.542,0,33.493Z" transform="translate(51.681 96.795)" opacity="0.2"/>
      <path id="Path_757" data-name="Path 757" d="M.989,40.272c9.351,2.072,17,3.314,23.22-1.1C34.07,27.708,39.675,16.194,37.577,4.6A5.622,5.622,0,0,0,33.5.2h0A5.655,5.655,0,0,0,26.75,3.608L19.3,28.578,0,32.313Z" transform="translate(35.287 84.123)" fill="#2f2e41"/>
      <path id="Path_759" data-name="Path 759" d="M.061,9.09S-1.521-3.225,11.391.813c0,0,9.222-1.692,12.246,9.843L26.7,22.747l-1.492-.812-.7,1.521-2.418.612-1.035-2.054-.5,2.494L.75,26.483s8.871-5.246,9.012-14.649L8.072,13.62Z" transform="translate(54.652 55.547)" fill="#2f2e41"/>
    </g>
  </g>
</svg>
