<svg xmlns="http://www.w3.org/2000/svg" width="96.908" height="82.233" viewBox="0 0 96.908 82.233">
  <g id="Group_82" data-name="Group 82" transform="translate(457.908 -889.307) rotate(90)">
    <path id="Path_735" data-name="Path 735" d="M835.707,604.414s-13.36.691-10.249,4.9,11.289-2.467,11.289-2.467Z" transform="translate(72.46 -171.655)" fill="#ffb8b8"/>
    <path id="Path_736" data-name="Path 736" d="M648.85,313.448l-2.719.68s-1.586,4.759-2.719,9.065-3.4,17.223-3.4,17.223l-17.569,12.313,2.1,4.688,23.405-9.224,5.212-20.467Z" transform="translate(283.938 79.252)" fill="#575a89"/>
    <path id="Path_737" data-name="Path 737" d="M428.6,291.607l1.014,21.225-2.115,6.31,6.2-4.543Z" transform="translate(501.628 109.541)" opacity="0.2"/>
    <circle id="Ellipse_36" data-name="Ellipse 36" cx="8.612" cy="8.612" r="8.612" transform="translate(935.281 366.866)" fill="#ffb8b8"/>
    <path id="Path_738" data-name="Path 738" d="M532.628,214.688l.68,9.971L524.7,236.217l-4.306-10.878s3.853-2.493,1.586-7.705Z" transform="translate(417.837 164.415)" fill="#ffb8b8"/>
    <path id="Path_739" data-name="Path 739" d="M421.631,313.5c0,2.04,5.665,5.212,5.665,5.212v1.133l2.266,1.133,4.985-9.971,1.359,10.877s9.972,1.587,13.144,0,4.76-.906,9.292-2.492-1.813-22.889-1.813-22.889l4.532-32.86-9.9-4.951-.522-.262-1.362-.251-2.087-.385-6.976,4.715-.562,2.946-.345,1.813-1.812-2.04-1.369-4.5-9.737,5.408,2.719,21.755S421.631,311.466,421.631,313.5Z" transform="translate(503.679 127.238)" fill="#575a89"/>
    <path id="Path_740" data-name="Path 740" d="M456.4,713.428s-10.425,8.385-5.439,9.971,7.7-8.612,7.7-8.612Z" transform="translate(502.222 -265.659)" fill="#ffb8b8"/>
    <path id="Path_741" data-name="Path 741" d="M380.408,300.733l2.266-.453s3.4,1.813,3.626,5.439,3.173,29.007,3.173,29.007l-9.518,25.608-7.705-2.946,7.479-24.022-5.666-20.849Z" transform="translate(582.068 90.607)" fill="#575a89"/>
    <circle id="Ellipse_37" data-name="Ellipse 37" cx="0.826" cy="0.826" r="0.826" transform="translate(942.07 396.604)" fill="#2f2e41"/>
    <circle id="Ellipse_38" data-name="Ellipse 38" cx="0.826" cy="0.826" r="0.826" transform="translate(942.07 401.974)" fill="#2f2e41"/>
    <circle id="Ellipse_39" data-name="Ellipse 39" cx="0.826" cy="0.826" r="0.826" transform="translate(937.389 437.357)" fill="#2f2e41"/>
    <path id="Path_742" data-name="Path 742" d="M522.89,88.852l1.592-.637s-3.328-3.664-7.959-3.346l1.3-1.434s-3.184-1.275-6.078,2.071a28.251,28.251,0,0,0-4.379,6.155h-1.7l.712,1.567-2.49,1.567,2.556-.281a8.754,8.754,0,0,0-.069,2.6,3.362,3.362,0,0,0,1.231,2.2h0a35.336,35.336,0,0,0,1.974-4.724v1.593s1.592-1.434,1.592-2.39l.868,1.115h5.789l-.868-1.434,3.329.478-1.3-1.753,5.153,7.237S527.086,91.242,522.89,88.852Z" transform="translate(428.273 277.803)" fill="#2f2e41"/>
    <path id="Path_743" data-name="Path 743" d="M255.511,500.5,250,517.7l4.406-17.9Z" transform="translate(704.249 -69.991)" opacity="0.2"/>
    <g id="Group_81" data-name="Group 81" transform="translate(516.047 194.055)">
      <path id="Path_721" data-name="Path 721" d="M649.522,372.81l-.054.725a15.084,15.084,0,0,1-1.585,5.185,14.713,14.713,0,0,1-7.889,7.134q-.513.2-1.064.378l-.41-1.287a15.05,15.05,0,0,0,2.957-1.293,13.088,13.088,0,0,0,5.177-5.495,14.761,14.761,0,0,0,1.359-4h-4.981V372.81Z" transform="translate(-246.41 -149.663)" fill="#edd79b"/>
      <path id="Path_722" data-name="Path 722" d="M643.8,385.873a14.71,14.71,0,0,0,7.888-7.133,15.054,15.054,0,0,0,1.585-5.185l.054-.725h.556l-.054.725a15.063,15.063,0,0,1-1.585,5.185,14.713,14.713,0,0,1-7.888,7.133q-.512.2-1.065.379l-.054-.169Q643.528,385.98,643.8,385.873Z" transform="translate(-250.755 -149.681)" fill="#fff" opacity="0.1"/>
      <path id="Path_723" data-name="Path 723" d="M412.522,384.945l-.41,1.287q-.552-.176-1.065-.379a14.71,14.71,0,0,1-7.888-7.133,15.054,15.054,0,0,1-1.585-5.185l-.054-.725h6.488v1.351h-4.982a14.768,14.768,0,0,0,1.363,4,13.079,13.079,0,0,0,5.176,5.494A15.016,15.016,0,0,0,412.522,384.945Z" transform="translate(-28.239 -149.663)" fill="#edd79b"/>
      <path id="Path_724" data-name="Path 724" d="M411.344,385.873a14.71,14.71,0,0,1-7.888-7.133,15.054,15.054,0,0,1-1.585-5.185l-.054-.725h-.556l.054.725a15.063,15.063,0,0,0,1.585,5.185,14.713,14.713,0,0,0,7.888,7.133q.512.2,1.065.379l.054-.169Q411.619,385.98,411.344,385.873Z" transform="translate(-28 -149.681)" fill="#fff" opacity="0.1"/>
      <path id="Path_725" data-name="Path 725" d="M509.91,573.525v7.283H494.92v-7.283l.477-.636a9.3,9.3,0,0,0,6.038-8,7.308,7.308,0,0,0,.05-.74h1.854a7.317,7.317,0,0,0,.05.74,9.31,9.31,0,0,0,6.038,8Z" transform="translate(-114.219 -325.801)" fill="#edd79b"/>
      <rect id="Rectangle_83" data-name="Rectangle 83" width="14.99" height="0.914" transform="translate(380.701 247.724)" opacity="0.1"/>
      <path id="Path_727" data-name="Path 727" d="M466.26,372.81H467.6v1.351h-1.225Q466.307,373.493,466.26,372.81Z" transform="translate(-87.836 -149.663)" opacity="0.1"/>
      <path id="Path_728" data-name="Path 728" d="M505.728,510.554l-.41,1.287q-.552-.176-1.065-.379a14.234,14.234,0,0,1-1.483-2.2A15.016,15.016,0,0,0,505.728,510.554Z" transform="translate(-121.445 -275.272)" opacity="0.1"/>
      <path id="Path_729" data-name="Path 729" d="M638.51,510.563a15.05,15.05,0,0,0,2.957-1.293,14.294,14.294,0,0,1-1.483,2.2q-.513.2-1.064.378Z" transform="translate(-246.401 -275.281)" opacity="0.1"/>
      <path id="Path_730" data-name="Path 730" d="M696.674,372.81q-.047.683-.119,1.351H695.33V372.81Z" transform="translate(-298.707 -149.663)" opacity="0.1"/>
      <path id="Path_731" data-name="Path 731" d="M578.914,564.89a5.136,5.136,0,0,1-1.954,0,7.326,7.326,0,0,0,.05-.74h1.854A7.326,7.326,0,0,0,578.914,564.89Z" transform="translate(-189.741 -325.801)" opacity="0.1"/>
      <path id="Path_732" data-name="Path 732" d="M468.26,344.65c.034,10.015,4.324,18.114,9.613,18.114s9.578-8.1,9.613-18.114Z" transform="translate(-89.677 -123.74)" fill="#edd79b"/>
      <path id="Path_733" data-name="Path 733" d="M469.968,344.65H468.26c.034,10.015,4.324,18.114,9.613,18.114a5.194,5.194,0,0,0,.854-.072C473.838,361.875,470,354.12,469.968,344.65Z" transform="translate(-89.677 -123.74)" fill="#fff" opacity="0.1"/>
      <rect id="Rectangle_84" data-name="Rectangle 84" width="10.196" height="2.622" transform="translate(383.098 250.512)" fill="#3f3d56"/>
      <path id="Path_734" data-name="Path 734" d="M497.567,593.857h9.719V593.5h-10.2v2.622h.477Z" transform="translate(-113.992 -342.988)" fill="#fff" opacity="0.1"/>
    </g>
  </g>
</svg>
