<svg xmlns="http://www.w3.org/2000/svg" width="89.1" height="108.928" viewBox="0 0 89.1 108.928">
  <g id="Group_92" data-name="Group 92" transform="translate(89.102 -834.575) rotate(90)">
    <g id="Group_89" data-name="Group 89" transform="translate(834.575 0.002)" opacity="0.8">
      <path id="Path_884" data-name="Path 884" d="M922.942,121.08a1.148,1.148,0,0,0-1.87,1.332c.213.321.448.635.671.935,2.7,3.638,4.093,8.06,5.3,12.431a5.847,5.847,0,0,1,.245,3.277,20.422,20.422,0,0,0-.56-8.558,53.41,53.41,0,0,0-3.028-8.082A7.313,7.313,0,0,0,922.942,121.08Z" transform="translate(-896.576 -111.371)" fill="#fdd835" opacity="0.5"/>
      <path id="Path_885" data-name="Path 885" d="M875.517,143.129c-1.8-.054-2.05,2.7-.238,2.848.477.04.953.051,1.411.061,5.569.152,10.828,2.166,15.9,4.331a6.9,6.9,0,0,1,3.274,2.27,23.876,23.876,0,0,0-8.482-6.006,64.507,64.507,0,0,0-10.005-3.249A8.722,8.722,0,0,0,875.517,143.129Z" transform="translate(-866.65 -125.764)" fill="#fdd835"/>
      <path id="Path_886" data-name="Path 886" d="M878.218,161.917c-1.148.043-.888,1.675.267,1.686.3,0,.606,0,.9-.022,3.512-.144,7.111.827,10.6,1.891a5.44,5.44,0,0,1,2.386,1.2,19.176,19.176,0,0,0-6.2-3.184,47.573,47.573,0,0,0-6.743-1.484A6.162,6.162,0,0,0,878.218,161.917Z" transform="translate(-868.849 -137.77)" fill="#fdd835" opacity="0.2"/>
      <path id="Path_887" data-name="Path 887" d="M943.814,219.646c.325,1.1,1.841.448,1.563-.675-.072-.3-.159-.585-.242-.859-1.011-3.371-.964-7.1-.8-10.742a5.483,5.483,0,0,1,.57-2.61,19.13,19.13,0,0,0-1.541,6.793,47.273,47.273,0,0,0,.235,6.9A6.06,6.06,0,0,0,943.814,219.646Z" transform="translate(-910.932 -165.15)" fill="#fdd835" opacity="0.5"/>
      <path id="Path_888" data-name="Path 888" d="M884.365,117.662c-.689-.123-.744.884-.054,1.04.18.04.361.069.538.1a19.929,19.929,0,0,1,6.089,2.48,3.339,3.339,0,0,1,1.274,1.018,11.752,11.752,0,0,0-3.3-2.685,29.057,29.057,0,0,0-3.837-1.743A3.726,3.726,0,0,0,884.365,117.662Z" transform="translate(-872.903 -109.483)" fill="#fdd835" opacity="0.2"/>
      <path id="Path_889" data-name="Path 889" d="M854.36,185.528c-1.754.9-.271,3.382,1.53,2.559.473-.213.931-.455,1.372-.682,5.364-2.783,11.59-3.808,17.719-4.595a8.69,8.69,0,0,1,4.5.231,30.226,30.226,0,0,0-11.731-.7,77.923,77.923,0,0,0-11.453,2.465A9.936,9.936,0,0,0,854.36,185.528Z" transform="translate(-853.575 -150.654)" fill="#fdd835"/>
      <path id="Path_890" data-name="Path 890" d="M868.924,202.2c-1.263,1.173.722,2.563,2.029,1.444.361-.3.675-.606.993-.9,3.841-3.61,8.919-6.176,13.976-8.54,1.242-.581,6.349-1.173,7.714-1.141-3.563.318-10.829,1.444-14.077,2.888a77.563,77.563,0,0,0-9.175,5.151A9.49,9.49,0,0,0,868.924,202.2Z" transform="translate(-863.126 -157.671)" fill="#fdd835" opacity="0.5"/>
      <path id="Path_891" data-name="Path 891" d="M894.495,222.854c-.361,1.686,2.039,1.707,2.487.025.115-.437.209-.881.3-1.3,1.112-5.154,3.83-10.154,6.645-14.976.693-1.18,4.559-4.573,5.7-5.32-2.75,2.285-8.1,7.338-9.93,10.385a78.367,78.367,0,0,0-4.624,9.457,9.573,9.573,0,0,0-.578,1.733Z" transform="translate(-879.701 -162.926)" fill="#fdd835"/>
      <path id="Path_892" data-name="Path 892" d="M939.975,95.815c-.859-1.751-3.314-.31-2.527,1.484.206.473.433.931.653,1.368,2.642,5.353,3.552,11.55,4.234,17.622a8.675,8.675,0,0,1-.3,4.454,30.507,30.507,0,0,0,.873-11.615,76.82,76.82,0,0,0-2.241-11.388,10.108,10.108,0,0,0-.693-1.924Z" transform="translate(-907.076 -95.022)" fill="#fdd835"/>
      <path id="Path_893" data-name="Path 893" d="M903.133,102.675a.318.318,0,0,0,.148.043c.094,0,.162-.1.2-.184.213-.466.09-1.083.422-1.444a4.963,4.963,0,0,1,.8,1.343l1.26-.39a1.88,1.88,0,0,1-.238,1.444,1.916,1.916,0,0,1,.592.4.646.646,0,0,1,.155.664,3.2,3.2,0,0,1-.888.09,5.805,5.805,0,0,1-.1,1.657.3.3,0,0,1-.108.209c-.09.058-.213,0-.307-.051a2.92,2.92,0,0,1-1.036-1.083l-.48,1.094a.5.5,0,0,1-.209.282.339.339,0,0,1-.393-.137.988.988,0,0,1-.137-.422l-.177-1.083a.252.252,0,0,0-.058-.152.27.27,0,0,0-.184-.054c-.448,0-.892-.018-1.336,0-.076-.235.159-.455.386-.556s.5-.173.614-.393c.231-.451-.361-1.083-.115-1.465C902.259,102.032,902.743,102.48,903.133,102.675Z" transform="translate(-883.914 -98.9)" fill="#fdd835"/>
      <path id="Path_894" data-name="Path 894" d="M966.112,121.08a1.148,1.148,0,0,1,1.87,1.332c-.217.321-.448.635-.671.935-2.7,3.638-4.093,8.06-5.3,12.431a5.814,5.814,0,0,0-.242,3.277,20.425,20.425,0,0,1,.56-8.558,52.882,52.882,0,0,1,3.025-8.082,7.556,7.556,0,0,1,.758-1.336Z" transform="translate(-922.568 -111.371)" fill="#fdd835" opacity="0.5"/>
      <path id="Path_895" data-name="Path 895" d="M986.663,143.129c1.8-.054,2.05,2.7.238,2.848-.473.04-.953.051-1.408.061-5.573.152-10.829,2.166-15.9,4.331a6.8,6.8,0,0,0-3.274,2.27,23.847,23.847,0,0,1,8.482-6.006,64.512,64.512,0,0,1,10.006-3.249A8.724,8.724,0,0,1,986.663,143.129Z" transform="translate(-925.624 -125.764)" fill="#fdd835"/>
      <path id="Path_896" data-name="Path 896" d="M996.246,161.917c1.151.043.891,1.675-.264,1.686-.3,0-.606,0-.9-.022-3.516-.144-7.111.827-10.6,1.891a5.42,5.42,0,0,0-2.386,1.2,19.176,19.176,0,0,1,6.2-3.184,47.565,47.565,0,0,1,6.743-1.484A6.137,6.137,0,0,1,996.246,161.917Z" transform="translate(-935.709 -137.77)" fill="#fdd835" opacity="0.5"/>
      <path id="Path_897" data-name="Path 897" d="M1001.607,117.662c.689-.123.744.884.054,1.04-.18.04-.361.069-.538.1a19.95,19.95,0,0,0-6.093,2.48,3.328,3.328,0,0,0-1.271,1.018,11.735,11.735,0,0,1,3.3-2.685,29.314,29.314,0,0,1,3.841-1.743,3.728,3.728,0,0,1,.711-.206Z" transform="translate(-943.16 -109.483)" fill="#fdd835" opacity="0.2"/>
      <path id="Path_898" data-name="Path 898" d="M963.392,235.8c-.155.686-1.1.343-.978-.361.032-.18.076-.361.115-.534a19.974,19.974,0,0,0,.061-6.577,3.345,3.345,0,0,0-.451-1.567,11.681,11.681,0,0,1,1.209,4.079,28.907,28.907,0,0,1,.126,4.216A3.605,3.605,0,0,1,963.392,235.8Z" transform="translate(-922.953 -179.209)" fill="#fdd835" opacity="0.2"/>
      <path id="Path_899" data-name="Path 899" d="M995.616,220.057c.541.917-.787.852-1.372-.061-.152-.242-.292-.484-.426-.722a49.312,49.312,0,0,0-6.67-8.241,9.162,9.162,0,0,0-2.068-1.783,32.483,32.483,0,0,1,5.414,4.631c1.617,1.693,3.046,3.458,4.447,5.216a8.9,8.9,0,0,1,.675.96Z" transform="translate(-937.613 -168.019)" fill="#fdd835" opacity="0.5"/>
      <path id="Path_900" data-name="Path 900" d="M880.915,220.057c-.541.917.787.852,1.368-.061.155-.242.3-.484.43-.722a49.313,49.313,0,0,1,6.67-8.241,9.086,9.086,0,0,1,2.068-1.783,32.356,32.356,0,0,0-5.414,4.631c-1.617,1.693-3.05,3.458-4.447,5.216A8.893,8.893,0,0,0,880.915,220.057Z" transform="translate(-870.965 -168.019)" fill="#fdd835" opacity="0.2"/>
      <path id="Path_901" data-name="Path 901" d="M929.636,235.8c.155.686,1.1.343.978-.361-.032-.18-.076-.361-.115-.534a19.974,19.974,0,0,1-.061-6.577,3.346,3.346,0,0,1,.451-1.567,11.681,11.681,0,0,0-1.209,4.079,28.907,28.907,0,0,0-.126,4.216,3.61,3.61,0,0,0,.083.744Z" transform="translate(-902.111 -179.209)" fill="#fdd835" opacity="0.2"/>
      <path id="Path_902" data-name="Path 902" d="M986.267,136.7c.689-.119.744.888.054,1.04-.181.04-.361.072-.538.1a19.976,19.976,0,0,0-6.093,2.476,3.364,3.364,0,0,0-1.271,1.021,11.626,11.626,0,0,1,3.3-2.685,28.6,28.6,0,0,1,3.837-1.743A3.738,3.738,0,0,1,986.267,136.7Z" transform="translate(-933.357 -121.652)" fill="#fdd835" opacity="0.2"/>
      <path id="Path_903" data-name="Path 903" d="M972.454,99.183c.6-.361,1.022.545.437.946-.152.1-.31.2-.458.292a19.9,19.9,0,0,0-4.725,4.573,3.274,3.274,0,0,0-.8,1.422,11.66,11.66,0,0,1,2.054-3.725,28.375,28.375,0,0,1,2.909-3.05,3.778,3.778,0,0,1,.581-.458Z" transform="translate(-926.001 -97.628)" fill="#fdd835" opacity="0.2"/>
      <path id="Path_904" data-name="Path 904" d="M1000.609,185.528c1.754.9.271,3.382-1.53,2.559-.473-.213-.935-.455-1.372-.682-5.364-2.783-11.594-3.808-17.719-4.595a8.689,8.689,0,0,0-4.5.231,30.222,30.222,0,0,1,11.731-.7,77.925,77.925,0,0,1,11.453,2.465A10.023,10.023,0,0,1,1000.609,185.528Z" transform="translate(-931.484 -150.654)" fill="#fdd835"/>
      <path id="Path_905" data-name="Path 905" d="M987.441,202.2c1.26,1.173-.722,2.563-2.032,1.444-.361-.3-.675-.606-.989-.9-3.844-3.61-8.923-6.176-13.976-8.54-1.242-.581-6.353-1.173-7.714-1.141,3.563.318,10.829,1.444,14.077,2.888a77.6,77.6,0,0,1,9.179,5.151,9.485,9.485,0,0,1,1.455,1.1Z" transform="translate(-923.33 -157.671)" fill="#fdd835" opacity="0.5"/>
      <path id="Path_906" data-name="Path 906" d="M968.2,225.123c.155,1.715-2.242,1.444-2.472-.285-.061-.451-.1-.906-.134-1.336-.458-5.252-2.527-10.551-4.718-15.687-.538-1.26-3.949-5.107-4.988-6,2.444,2.613,7.122,8.3,8.551,11.55a77.736,77.736,0,0,1,3.4,9.959,9.8,9.8,0,0,1,.361,1.794Z" transform="translate(-918.959 -163.271)" fill="#fdd835"/>
      <path id="Path_907" data-name="Path 907" d="M988.022,102.675a.318.318,0,0,1-.148.043c-.1,0-.162-.1-.2-.184-.217-.466-.09-1.083-.422-1.444a4.964,4.964,0,0,0-.8,1.343l-1.26-.39a1.866,1.866,0,0,0,.238,1.444,1.935,1.935,0,0,0-.6.4.653.653,0,0,0-.152.664,3.187,3.187,0,0,0,.888.09,5.938,5.938,0,0,0,.094,1.657.235.235,0,0,0,.419.159,2.921,2.921,0,0,0,1.036-1.083l.469,1.119a.48.48,0,0,0,.209.282.332.332,0,0,0,.39-.137.946.946,0,0,0,.141-.422l.173-1.083a.282.282,0,0,1,.061-.152.271.271,0,0,1,.184-.054c.444,0,.892-.018,1.336,0,.076-.235-.162-.455-.39-.556s-.495-.173-.61-.393c-.231-.451.361-1.083.112-1.465C988.9,102.032,988.416,102.48,988.022,102.675Z" transform="translate(-937.335 -98.9)" fill="#fdd835"/>
      <path id="Path_908" data-name="Path 908" d="M998.562,246.423a.317.317,0,0,1-.148.043c-.1,0-.162-.1-.2-.184-.213-.466-.09-1.083-.422-1.462a4.963,4.963,0,0,0-.8,1.343l-1.26-.39a1.88,1.88,0,0,0,.238,1.444,1.919,1.919,0,0,0-.592.4.653.653,0,0,0-.155.668,3.342,3.342,0,0,0,.888.087,5.8,5.8,0,0,0,.1,1.657.3.3,0,0,0,.108.209c.09.061.213,0,.307-.051a2.92,2.92,0,0,0,1.036-1.1l.469,1.123a.5.5,0,0,0,.209.278.339.339,0,0,0,.393-.134,1.02,1.02,0,0,0,.137-.426l.177-1.083a.253.253,0,0,1,.058-.152.271.271,0,0,1,.184-.054h1.336c.076-.238-.159-.458-.386-.556s-.5-.177-.614-.4c-.231-.451.361-1.083.116-1.465C999.45,245.78,998.952,246.228,998.562,246.423Z" transform="translate(-944.071 -190.75)" fill="#fdd835" opacity="0.2"/>
      <path id="Path_909" data-name="Path 909" d="M1028.149,150.043a.321.321,0,0,1-.151.043c-.094,0-.159-.1-.2-.184-.217-.466-.094-1.083-.422-1.462a5.013,5.013,0,0,0-.8,1.343l-1.26-.39a1.866,1.866,0,0,0,.238,1.444,1.953,1.953,0,0,0-.6.4.668.668,0,0,0-.155.668,3.227,3.227,0,0,0,.892.087,5.94,5.94,0,0,0,.094,1.657.315.315,0,0,0,.108.209c.094.061.213,0,.307-.051a2.916,2.916,0,0,0,1.04-1.083l.466,1.119a.5.5,0,0,0,.209.278.332.332,0,0,0,.393-.134.976.976,0,0,0,.141-.426l.173-1.065a.309.309,0,0,1,.058-.152.282.282,0,0,1,.188-.054h1.332c.079-.238-.159-.458-.386-.556s-.5-.177-.61-.4c-.231-.451.361-1.083.112-1.465C1029.023,149.4,1028.536,149.848,1028.149,150.043Z" transform="translate(-962.977 -129.159)" fill="#fdd835"/>
      <path id="Path_910" data-name="Path 910" d="M907.51,259.724a.427.427,0,0,1-.206.061c-.133,0-.227-.134-.282-.256-.3-.65-.126-1.491-.588-2.039a7.033,7.033,0,0,0-1.115,1.873l-1.758-.545a2.635,2.635,0,0,0,.332,2.014,2.667,2.667,0,0,0-.827.563.92.92,0,0,0-.216.928,4.508,4.508,0,0,0,1.242.123,8.094,8.094,0,0,0,.133,2.306.325.325,0,0,0,.578.224,4.053,4.053,0,0,0,1.444-1.53l.653,1.559a.7.7,0,0,0,.292.39.469.469,0,0,0,.549-.188,1.415,1.415,0,0,0,.191-.592l.245-1.487a.361.361,0,0,1,.079-.209.382.382,0,0,1,.26-.076c.621,0,1.242-.022,1.859-.018.108-.328-.224-.635-.538-.772s-.693-.245-.852-.552c-.325-.628.513-1.5.155-2.039C908.726,258.829,908.051,259.454,907.51,259.724Z" transform="translate(-885.035 -198.847)" fill="#fdd835"/>
      <path id="Path_911" data-name="Path 911" d="M858.3,151.8a.4.4,0,0,1-.209.061c-.13,0-.224-.134-.281-.253-.3-.65-.126-1.491-.585-2.039a6.993,6.993,0,0,0-1.119,1.873l-1.754-.545a2.6,2.6,0,0,0,.332,2.014,2.676,2.676,0,0,0-.827.56.921.921,0,0,0-.217.931,4.483,4.483,0,0,0,1.242.123,8.247,8.247,0,0,0,.13,2.306.407.407,0,0,0,.152.292c.13.083.3,0,.429-.069a4.064,4.064,0,0,0,1.444-1.534l.653,1.559a.722.722,0,0,0,.289.393.477.477,0,0,0,.549-.191,1.386,1.386,0,0,0,.195-.592l.242-1.484a.386.386,0,0,1,.083-.209.361.361,0,0,1,.26-.076c.617-.018,1.238-.022,1.859-.018.1-.328-.224-.635-.541-.776s-.693-.242-.852-.549c-.321-.628.513-1.5.159-2.043C859.515,150.909,858.84,151.53,858.3,151.8Z" transform="translate(-853.586 -129.881)" fill="#fdd835"/>
      <path id="Path_912" data-name="Path 912" d="M1011.58,220.488a.235.235,0,0,1-.108.032c-.072,0-.119-.072-.152-.137-.159-.361-.065-.79-.31-1.083a3.71,3.71,0,0,0-.592,1l-.935-.289a1.376,1.376,0,0,0,.177,1.083,1.423,1.423,0,0,0-.44.3.491.491,0,0,0-.112.491,2.364,2.364,0,0,0,.657.069,4.221,4.221,0,0,0,.072,1.224.173.173,0,0,0,.307.119,2.165,2.165,0,0,0,.765-.816l.361.83a.361.361,0,0,0,.155.206.246.246,0,0,0,.292-.1.722.722,0,0,0,.1-.314l.13-.79a.2.2,0,0,1,.043-.112.227.227,0,0,1,.137-.04h.989c.058-.173-.119-.336-.285-.411s-.361-.126-.455-.292c-.17-.332.274-.794.083-1.083S1011.854,220.343,1011.58,220.488Z" transform="translate(-952.952 -174.442)" fill="#fdd835" opacity="0.2"/>
      <path id="Path_913" data-name="Path 913" d="M944.684,259.088a.308.308,0,0,1-.112.032.209.209,0,0,1-.148-.137c-.159-.343-.069-.79-.31-1.083a3.726,3.726,0,0,0-.6,1l-.931-.289a1.379,1.379,0,0,0,.177,1.083,1.412,1.412,0,0,0-.44.3.491.491,0,0,0-.116.495,2.26,2.26,0,0,0,.661.065,4.378,4.378,0,0,0,.069,1.227.242.242,0,0,0,.079.155c.069.043.159,0,.227-.036a2.166,2.166,0,0,0,.769-.816l.361.83a.361.361,0,0,0,.155.206.253.253,0,0,0,.292-.1.721.721,0,0,0,.1-.314l.13-.787a.2.2,0,0,1,.043-.112.188.188,0,0,1,.137-.04h.989c.054-.173-.119-.336-.289-.411s-.361-.13-.451-.292c-.173-.332.271-.8.083-1.083S944.972,258.943,944.684,259.088Z" transform="translate(-910.2 -199.109)" fill="#fdd835" opacity="0.2"/>
      <path id="Path_914" data-name="Path 914" d="M879.983,123.994a.209.209,0,0,1-.108.032c-.072,0-.123-.072-.152-.134-.159-.361-.069-.794-.31-1.083a3.65,3.65,0,0,0-.6.993l-.931-.289a1.372,1.372,0,0,0,.177,1.083,1.487,1.487,0,0,0-.44.3.487.487,0,0,0-.116.495,2.552,2.552,0,0,0,.661.065,4.332,4.332,0,0,0,.069,1.224.231.231,0,0,0,.083.159c.069.043.155,0,.227-.04a2.165,2.165,0,0,0,.765-.812l.361.827a.386.386,0,0,0,.155.209.253.253,0,0,0,.292-.1.721.721,0,0,0,.1-.314l.13-.79a.2.2,0,0,1,.043-.112.227.227,0,0,1,.137-.04h.989c.054-.177-.119-.339-.289-.411a.832.832,0,0,1-.451-.292c-.173-.336.274-.8.083-1.083S880.271,123.853,879.983,123.994Z" transform="translate(-868.853 -112.78)" fill="#fdd835" opacity="0.5"/>
      <path id="Path_915" data-name="Path 915" d="M914.419,200.124a.192.192,0,0,1-.108.032c-.072,0-.119-.072-.148-.134-.159-.361-.069-.794-.314-1.083a3.81,3.81,0,0,0-.592,1l-.935-.289a1.4,1.4,0,0,0,.177,1.083,1.443,1.443,0,0,0-.437.3.487.487,0,0,0-.116.494,2.528,2.528,0,0,0,.657.065,4.333,4.333,0,0,0,.072,1.224.227.227,0,0,0,.079.159c.069.043.159,0,.227-.04a2.184,2.184,0,0,0,.772-.83l.361.827a.361.361,0,0,0,.155.209.245.245,0,0,0,.289-.1.721.721,0,0,0,.1-.314l.13-.79a.18.18,0,0,1,.043-.112.213.213,0,0,1,.137-.04h.985c.058-.177-.116-.339-.285-.411a.832.832,0,0,1-.451-.292c-.173-.336.271-.8.083-1.083S914.708,199.983,914.419,200.124Z" transform="translate(-890.861 -161.431)" fill="#fdd835" opacity="0.5"/>
      <path id="Path_916" data-name="Path 916" d="M889.429,170.444a.191.191,0,0,1-.108.032c-.072,0-.119-.069-.148-.134-.159-.361-.069-.794-.314-1.083a3.691,3.691,0,0,0-.592.993l-.935-.289a1.4,1.4,0,0,0,.177,1.083,1.487,1.487,0,0,0-.44.3.494.494,0,0,0-.112.495,2.364,2.364,0,0,0,.657.065,4.379,4.379,0,0,0,.072,1.227.223.223,0,0,0,.079.155c.069.043.159,0,.227-.04a2.166,2.166,0,0,0,.769-.834l.361.827a.361.361,0,0,0,.152.209.253.253,0,0,0,.292-.1.722.722,0,0,0,.1-.314l.126-.79a.185.185,0,0,1,.043-.108.191.191,0,0,1,.141-.04h.985c.058-.177-.119-.339-.285-.411a.869.869,0,0,1-.455-.292c-.17-.336.274-.8.087-1.083S889.718,170.3,889.429,170.444Z" transform="translate(-874.892 -142.464)" fill="#fdd835" opacity="0.5"/>
      <path id="Path_917" data-name="Path 917" d="M996.788,177.434a.191.191,0,0,1-.108.032c-.072,0-.119-.072-.148-.134-.159-.361-.069-.794-.314-1.083a3.707,3.707,0,0,0-.581.993l-.935-.289a1.4,1.4,0,0,0,.177,1.083,1.486,1.486,0,0,0-.44.3.494.494,0,0,0-.112.495,2.526,2.526,0,0,0,.657.065,4.331,4.331,0,0,0,.072,1.224.228.228,0,0,0,.079.159c.069.043.159,0,.227-.04a2.184,2.184,0,0,0,.769-.812l.361.827a.361.361,0,0,0,.155.209.249.249,0,0,0,.289-.1.722.722,0,0,0,.1-.314l.13-.79a.2.2,0,0,1,.04-.112.231.231,0,0,1,.141-.04h.985c.058-.177-.119-.339-.285-.411a.869.869,0,0,1-.455-.292c-.17-.336.274-.8.087-1.083S997.081,177.293,996.788,177.434Z" transform="translate(-943.506 -146.931)" fill="#fdd835" opacity="0.5"/>
      <path id="Path_918" data-name="Path 918" d="M944.683,171.594a.213.213,0,0,1-.112.032c-.069,0-.119-.072-.148-.134-.159-.361-.069-.794-.31-1.083a3.649,3.649,0,0,0-.6.993l-.931-.289a1.372,1.372,0,0,0,.177,1.083,1.488,1.488,0,0,0-.44.3.487.487,0,0,0-.116.495,2.526,2.526,0,0,0,.661.065,4.335,4.335,0,0,0,.069,1.224.242.242,0,0,0,.079.159c.069.043.159,0,.227-.04a2.165,2.165,0,0,0,.769-.812l.361.827a.386.386,0,0,0,.155.209.253.253,0,0,0,.292-.1.723.723,0,0,0,.1-.314l.13-.79a.2.2,0,0,1,.043-.112.227.227,0,0,1,.137-.04h.989c.054-.177-.119-.339-.289-.411a.833.833,0,0,1-.451-.292c-.173-.336.271-.8.083-1.083S944.971,171.453,944.683,171.594Z" transform="translate(-910.199 -143.199)" fill="#fdd835" opacity="0.2"/>
      <path id="Path_919" data-name="Path 919" d="M928.339,178.7a.191.191,0,0,1-.108.033c-.072,0-.119-.072-.148-.134-.159-.361-.069-.794-.314-1.083a3.637,3.637,0,0,0-.592.993l-.935-.289a1.4,1.4,0,0,0,.177,1.083,1.488,1.488,0,0,0-.44.3.494.494,0,0,0-.112.494,2.528,2.528,0,0,0,.657.065,4.331,4.331,0,0,0,.072,1.224.227.227,0,0,0,.079.159c.069.043.159,0,.227-.04a2.183,2.183,0,0,0,.769-.812l.361.827a.36.36,0,0,0,.155.209.249.249,0,0,0,.289-.1.722.722,0,0,0,.1-.314l.13-.79a.2.2,0,0,1,.04-.112.206.206,0,0,1,.141-.036h.985c.058-.177-.119-.339-.285-.411a.869.869,0,0,1-.455-.292c-.17-.336.274-.8.087-1.083S928.628,178.563,928.339,178.7Z" transform="translate(-899.757 -147.742)" fill="#fdd835" opacity="0.3"/>
      <path id="Path_920" data-name="Path 920" d="M913.1,135.674a.213.213,0,0,1-.112.032c-.069,0-.119-.072-.148-.134-.159-.361-.069-.794-.31-1.083a3.726,3.726,0,0,0-.6,1l-.931-.289a1.372,1.372,0,0,0,.177,1.083,1.486,1.486,0,0,0-.44.3.487.487,0,0,0-.116.495,2.552,2.552,0,0,0,.661.065,4.332,4.332,0,0,0,.069,1.224.242.242,0,0,0,.079.159c.069.043.159,0,.227-.04a2.165,2.165,0,0,0,.769-.812l.361.827a.386.386,0,0,0,.155.209.253.253,0,0,0,.292-.1.722.722,0,0,0,.1-.314l.13-.79a.2.2,0,0,1,.043-.112.227.227,0,0,1,.137-.04h.989c.054-.177-.119-.339-.289-.411a.833.833,0,0,1-.451-.292c-.173-.336.271-.8.083-1.083S913.391,135.53,913.1,135.674Z" transform="translate(-890.018 -120.244)" fill="#fdd835" opacity="0.2"/>
      <path id="Path_921" data-name="Path 921" d="M943.113,191.824a.213.213,0,0,1-.112.032c-.069,0-.119-.069-.148-.134-.159-.361-.069-.794-.31-1.083a3.7,3.7,0,0,0-.6.993l-.931-.289a1.372,1.372,0,0,0,.177,1.083,1.486,1.486,0,0,0-.44.3.487.487,0,0,0-.116.495,2.4,2.4,0,0,0,.661.065,4.383,4.383,0,0,0,.069,1.227.242.242,0,0,0,.079.155c.069.043.159,0,.231-.04a2.166,2.166,0,0,0,.765-.812l.361.827a.386.386,0,0,0,.155.209.253.253,0,0,0,.292-.1.722.722,0,0,0,.1-.314l.13-.79a.183.183,0,0,1,.043-.108.188.188,0,0,1,.137-.04h.989c.054-.177-.119-.339-.289-.411a.832.832,0,0,1-.451-.292c-.173-.336.271-.8.083-1.083S943.4,191.683,943.113,191.824Z" transform="translate(-909.196 -156.127)" fill="#fdd835" opacity="0.3"/>
    </g>
    <g id="Group_91" data-name="Group 91" transform="translate(868.204 3.935)">
      <path id="Path_811" data-name="Path 811" d="M630.655,195.535a3.97,3.97,0,0,1-1.5.8l-2.559.917a9.534,9.534,0,0,1-4.306.819c-.819-.1-4.331-.617-4.862-1.256-.808-.989,2.025-2.444,2.992-3.277a4.1,4.1,0,0,0,.606-.534,2.176,2.176,0,0,0,.263-1.613,24.911,24.911,0,0,1-.188-4.248,8.538,8.538,0,0,1,.144-1.007c.361-1.66,1.906-1.054,3.126-.614a24.445,24.445,0,0,1,4.241,1.837,3.044,3.044,0,0,1,1.047.888,4.514,4.514,0,0,1,.235,2.888,2.7,2.7,0,0,0,.422,2.122,5.465,5.465,0,0,1,.682.722A1.353,1.353,0,0,1,630.655,195.535Z" transform="translate(-589.656 -156.479)" fill="#be6f72"/>
      <path id="Path_812" data-name="Path 812" d="M550.082,118.959c.361-1.6.44-3.249.874-4.833a22.669,22.669,0,0,1,1.151-3.018l1.574-3.718a2.61,2.61,0,0,1,.751-1.133,2.227,2.227,0,0,1,1.238-.336,5.529,5.529,0,0,1,4.252,1.57,3.649,3.649,0,0,1,.552,4.31c-1.011,1.574-3.216,1.9-4.534,3.223a6.285,6.285,0,0,0-1.5,3.191c-.657,3.032-.437,6.179-.639,9.276a3.084,3.084,0,0,1-1.083,2.563,3.2,3.2,0,0,1-1.617.314l-2.368.036c-.4,0-1.837.249-2.1-.047-.462-.527.592-3.129.783-3.711.426-1.292.949-2.545,1.444-3.815A12.573,12.573,0,0,0,550.082,118.959Z" transform="translate(-544.434 -105.917)" fill="#be6f72"/>
      <path id="Path_819" data-name="Path 819" d="M578.862,282.734a3.84,3.84,0,0,0-1.7,1.707c-.231.621-.123,1.339-.4,1.942s-.9,1.029-1.039,1.678c-.1.473.094.971,0,1.444a5.991,5.991,0,0,0-.2.747,1.575,1.575,0,0,0,.877,1.274,7.327,7.327,0,0,0,6.558.7,28.766,28.766,0,0,0,2.758-1.411,5.486,5.486,0,0,1,2.971-.722c.6.065,1.166.285,1.761.361a1.834,1.834,0,0,0,1.65-.487,2.092,2.092,0,0,0,.361-.859,12.766,12.766,0,0,0-.2-6.071c-.476-1.989-1.2-3.913-1.707-5.894a27.128,27.128,0,0,0-1.242-4.364,5.726,5.726,0,0,0-3.036-3.212.541.541,0,0,0-.361-.043.578.578,0,0,0-.235.173,11.06,11.06,0,0,0-2.476,4.162c-.567,1.729-.722,3.563-1.242,5.3a5.392,5.392,0,0,1-1.083,2.238A12.5,12.5,0,0,1,578.862,282.734Z" transform="translate(-562.97 -210.463)" fill="#3f3d56"/>
      <path id="Path_820" data-name="Path 820" d="M592.486,289.155a2.1,2.1,0,0,1-.379.855,1.83,1.83,0,0,1-1.65.487c-.592-.072-1.162-.292-1.758-.361a5.443,5.443,0,0,0-2.971.722c-.924.462-1.8,1.036-2.761,1.408a7.288,7.288,0,0,1-4.378.249,7.064,7.064,0,0,1-2.166-.953,1.553,1.553,0,0,1-.877-1.274,6.167,6.167,0,0,1,.2-.747c.094-.473-.094-.971,0-1.444.137-.65.765-1.083,1.04-1.682s.17-1.317.4-1.942a3.848,3.848,0,0,1,1.7-1.707,12.967,12.967,0,0,0,2.05-1.321,2.038,2.038,0,0,0,.213-.249,6.5,6.5,0,0,0,.859-1.989c.531-1.74.675-3.57,1.238-5.3a11.121,11.121,0,0,1,2.48-4.162.544.544,0,0,1,.231-.173.578.578,0,0,1,.361.043,5.767,5.767,0,0,1,3.036,3.216,28.425,28.425,0,0,1,1.242,4.36c.505,1.982,1.231,3.905,1.707,5.894A12.764,12.764,0,0,1,592.486,289.155Z" transform="translate(-562.983 -210.491)" opacity="0.1"/>
      <path id="Path_821" data-name="Path 821" d="M636.653,191.14a7.219,7.219,0,0,1-8.793-3.97,8.55,8.55,0,0,1,.144-1.007c.361-1.66,1.906-1.054,3.126-.614a24.439,24.439,0,0,1,4.241,1.837,3.041,3.041,0,0,1,1.047.888C636.952,189.071,636.739,190.133,636.653,191.14Z" transform="translate(-596.415 -156.498)" opacity="0.1"/>
      <circle id="Ellipse_44" data-name="Ellipse 44" cx="7.219" cy="7.219" r="7.219" transform="translate(30.838 20.178)" fill="#be6f72"/>
      <path id="Path_823" data-name="Path 823" d="M616.148,212.226l-2.924-1.083-1.234-.451a5.973,5.973,0,0,0-1.574-.422,4.007,4.007,0,0,0-3.5,2.036,10.994,10.994,0,0,0-1.281,4.035q-.5,2.866-.845,5.754a37.576,37.576,0,0,0-.379,5.245,62.171,62.171,0,0,0,2.068,13.229,46.456,46.456,0,0,1,1.151,5.862c.087.816.126,1.639.213,2.454.094.92.245,1.834.4,2.743l.87,5.187a6.856,6.856,0,0,1,3.646-1.484c1.18-.043,2.35.4,3.526.3,1.354-.115,2.552-.928,3.887-1.177a23.427,23.427,0,0,1,3.148-.09c2.714-.137,5.209-1.635,7.916-1.881,2.148-.191,4.281.415,6.432.538.6.036,1.411-.155,1.411-.758,0-.419-.419-.7-.783-.9a39.349,39.349,0,0,1-4.891-3.49,16.513,16.513,0,0,1-3.844-3.8c-2.357-3.664-1.548-8.623-3.559-12.485-1.635-3.144,0-7.259,0-10.8a16.426,16.426,0,0,0-1.383-8.085l-1.4-3.555a.58.58,0,0,0-.166-.271.552.552,0,0,0-.321-.094,3.385,3.385,0,0,0-2.332.744c-.661.538-1.083,1.31-1.733,1.873A2.61,2.61,0,0,1,616.148,212.226Z" transform="translate(-581.43 -171.647)" fill="#e3e8f4"/>
      <path id="Path_824" data-name="Path 824" d="M643.61,206.161a6.42,6.42,0,0,1,1.141-2.794,2.194,2.194,0,0,1,2.718-.628c.967.628,1.007,2.079,1.834,2.888a4.446,4.446,0,0,0,2.786.834,18.9,18.9,0,0,1,5.151,1.213,2.1,2.1,0,0,1,.855.513c.451.513.361,1.3.585,1.938.307.823,1.155,1.346,1.484,2.166a4.319,4.319,0,0,1-.3,2.862c-.545,1.682-.888,3.425-1.419,5.111a11.335,11.335,0,0,1-2.527,4.613c-.549.567-1.364,1.083-2.086.751l-.278,2a3.4,3.4,0,0,0,0,1.281,1.141,1.141,0,0,0,.837.888c.054.31.383.458.65.628a1.8,1.8,0,0,1,.458,2.527c-.227.307-.563.549-.671.913a1.3,1.3,0,0,0,.693,1.375c.469.292,1.022.419,1.5.7a4.666,4.666,0,0,1,1.859,2.787,5.145,5.145,0,0,0,1.083,2.31c.238.231.523.4.751.643a2.721,2.721,0,0,1,.646,1.653,3.289,3.289,0,0,1-.469,2.166c-.722,1.036-2.068,1.339-3.249,1.8a27.378,27.378,0,0,0-5.183,3.393,5.53,5.53,0,0,1-2.364,1.112c-1.169.159-2.321-.361-3.5-.4a8.5,8.5,0,0,0-2.086.271l-2.166.469c.116-1.678-.808-3.357-1.325-4.956a24.652,24.652,0,0,1-.924-9.385,73.761,73.761,0,0,1,1.509-9.367c.444-2.166.4-4.429,1.083-6.533a43.144,43.144,0,0,0,1.888-6.075C645.119,212.416,642.837,209.529,643.61,206.161Z" transform="translate(-604.174 -167.628)" fill="#3f3d56"/>
      <path id="Path_825" data-name="Path 825" d="M685.77,230.243a3.968,3.968,0,0,1,.415,1.173,4.235,4.235,0,0,0,.913,1.718,6.036,6.036,0,0,1,.96,1.083,8.1,8.1,0,0,1,.361,2.083,16.7,16.7,0,0,1,.78,2.166,3.972,3.972,0,0,0,.061.657c.235.877,1.52,1.083,1.8,1.956.191.57-.137,1.184-.076,1.779a1.567,1.567,0,0,1,.032.563,1.126,1.126,0,0,1-.411.527,8.342,8.342,0,0,0-2.375,4.23,24.005,24.005,0,0,0-.545,4.88l-1.411-1.866a2.2,2.2,0,0,0-.563-.578c-.18-.108-.39-.162-.574-.267a2.621,2.621,0,0,1-.949-1.527,14.126,14.126,0,0,0-2.527-4.375,4.757,4.757,0,0,1-1.368-2.231,4.085,4.085,0,0,1,.065-1.2,20.58,20.58,0,0,1,1.9-6.887c.538-.982,1.234-1.87,1.751-2.866C684.359,230.6,684.846,228.878,685.77,230.243Z" transform="translate(-629.914 -185.04)" fill="#3f3d56"/>
      <path id="Path_826" data-name="Path 826" d="M560.992,192.537a1.65,1.65,0,0,1-.224.866,1.141,1.141,0,0,1-1.141.379,3.3,3.3,0,0,1-1.141-.534q-1.509-.953-3.018-1.909a16.712,16.712,0,0,1-1.621-1.112,14.466,14.466,0,0,1-2.14-2.242c-1.754-2.166-3.306-4.515-5.259-6.515-.531-.541-1.083-1.061-1.6-1.628a23.753,23.753,0,0,1-1.928-2.592,4.415,4.415,0,0,1-1.05-2.754c.058-.563.328-1.083.408-1.642a1.023,1.023,0,0,0-.87-1.426,1.472,1.472,0,0,1-.314-.069c-.5-.209-.426-.985-.065-1.393s.9-.635,1.224-1.083a6.525,6.525,0,0,1,.513-.762,1.953,1.953,0,0,1,.841-.422,13.016,13.016,0,0,1,6.407-.242c.361.079.772.224.881.574a1.058,1.058,0,0,1,0,.52,11.615,11.615,0,0,0-.274,2.166,3.838,3.838,0,0,0,.025.455,8.166,8.166,0,0,0,2.13,4.021c1.148,1.422,2.314,2.833,3.483,4.241a16.667,16.667,0,0,0,2.112,2.256,12.049,12.049,0,0,1,2.22,1.852,4.052,4.052,0,0,1,.361,2.216A49.207,49.207,0,0,1,560.992,192.537Z" transform="translate(-540.744 -145.06)" fill="#3f3d56"/>
      <path id="Path_827" data-name="Path 827" d="M713.225,232.111a7.8,7.8,0,0,0,.96-1.144,7.423,7.423,0,0,0,.722-1.613L717,223.416c.332-.938.664-1.881,1.083-2.79.433-.989.946-1.935,1.419-2.906a38.434,38.434,0,0,0,2.8-7.833,2.889,2.889,0,0,0,.112-1.151,3.032,3.032,0,0,0-1.025-1.552,7.524,7.524,0,0,0-1.538-1.274,2.559,2.559,0,0,0-1.927-.31,2.79,2.79,0,0,0-1.718,2.166,22.614,22.614,0,0,0-.224,2.888c-.13,1.386-.606,2.722-.722,4.111-.061.8,0,1.621-.1,2.422a8.814,8.814,0,0,1-1.083,2.981,19.291,19.291,0,0,1-4.653,5.746,7.5,7.5,0,0,0-1.4,1.346,4.413,4.413,0,0,0-.675,1.682,3.88,3.88,0,0,0,.292,2.736,4.024,4.024,0,0,0,2.8,1.668C711.89,233.645,712.225,233.132,713.225,232.111Z" transform="translate(-647.136 -169.575)" fill="#be6f72"/>
      <path id="Path_828" data-name="Path 828" d="M630.513,148.241a3.375,3.375,0,0,1,3.27-1.772,3.61,3.61,0,0,1,2.837,2.548,6.581,6.581,0,0,0,.534,1.6c.448.7,1.278.9,1.9,1.4a3.808,3.808,0,0,1,1.213,2.686,8.153,8.153,0,0,1-.48,3.039,9.65,9.65,0,0,0-.361,1.271c-.072.415-.079.845-.144,1.263a4.108,4.108,0,0,1-1.66,2.74.693.693,0,0,1-.448.162c-.282-.029-.455-.361-.559-.653-.574-1.657-.437-3.685-1.494-5a5.36,5.36,0,0,0-1.718-1.281,2.166,2.166,0,0,0-.874-.328,2.271,2.271,0,0,0-1.263.462,8.028,8.028,0,0,1-2.5,1.1,3.09,3.09,0,0,1-2.581-.556c-.5-.415-.863-1.032-1.415-1.354a11.311,11.311,0,0,0-1.675-.523,2.476,2.476,0,0,1-.982-3.79c.361-.437.9-.679,1.216-1.159a7.363,7.363,0,0,0,.577-2.22,3.068,3.068,0,0,1,1.837-2.1,2.588,2.588,0,0,1,2.57.538c.361.325.65.747,1,1.083a2.888,2.888,0,0,0,2.671.722" transform="translate(-592.413 -131.304)" fill="#3f3d56"/>
      <path id="Path_829" data-name="Path 829" d="M661.909,297.705a1.4,1.4,0,0,0-.383,1.53,33.127,33.127,0,0,0,4.2-.6c.982-.141,2.7-.072,3.364-.967,1.177-1.592-2.469-1.242-3.137-1.184C664.682,296.622,662.877,296.778,661.909,297.705Z" transform="translate(-617.875 -227.651)" opacity="0.1"/>
      <path id="Path_831" data-name="Path 831" d="M550.937,168.526a11.625,11.625,0,0,0-.274,2.166,6.308,6.308,0,0,1-3.249-.5l-2.985-1.018a.848.848,0,0,0-1.141.213,25.284,25.284,0,0,1-1.8,2,1.472,1.472,0,0,1-.314-.069c-.5-.209-.426-.985-.065-1.393s.9-.635,1.224-1.083a6.526,6.526,0,0,1,.513-.762,1.953,1.953,0,0,1,.841-.422,13.016,13.016,0,0,1,6.407-.242c.361.079.772.224.881.574A1.057,1.057,0,0,1,550.937,168.526Z" transform="translate(-540.789 -145.035)" opacity="0.1"/>
      <path id="Path_835" data-name="Path 835" d="M703.7,262.2a6.313,6.313,0,0,0,4.425,6.977c-.177.855-1.061,1.328-1.686,1.938-.881.859-1.336,2.137-2.375,2.787-1.159.722-2.649.44-3.97.137a.48.48,0,0,1-.31-.159.527.527,0,0,1-.058-.141,9.293,9.293,0,0,1-.274-4.909,16.055,16.055,0,0,1,1.92-3.736C702.064,263.886,702.129,262.6,703.7,262.2Z" transform="translate(-642.021 -205.79)" fill="#3f3d56"/>
      <path id="Path_836" data-name="Path 836" d="M592.42,204.835a9.424,9.424,0,0,0-3.97,1.209,4.415,4.415,0,0,1-2.563.971c-.545-.058-1.083-.361-1.613-.217a3.272,3.272,0,0,0-.827.491.935.935,0,0,1-.91.144l-.361,5a18.334,18.334,0,0,0,.184,5.692,15.907,15.907,0,0,1,.809,2.761c.058.957-.029,1.946.04,2.917.065.9.263,1.783.314,2.685a17.038,17.038,0,0,1-.722,5.024c-.61,2.433-.978,4.92-2.166,7.125a4.186,4.186,0,0,0-.722,1.924,1,1,0,0,0,.022.253c-.361.2-.7.383-1,.581a3.848,3.848,0,0,0-1.7,1.707c-.227.624-.123,1.339-.4,1.942s-.9,1.032-1.04,1.682c-.1.473.09.971,0,1.444a6.179,6.179,0,0,0-.2.747,1.568,1.568,0,0,0,.877,1.274,7.064,7.064,0,0,0,2.166.953l2.187-8.555h0a69.147,69.147,0,0,0,4.869-11.352,24.234,24.234,0,0,1,1.411-3.736,17.884,17.884,0,0,0,1.083-2.126,16.01,16.01,0,0,0,.52-2.852,20.118,20.118,0,0,1,.848-3.3,14.1,14.1,0,0,0,.92-3.53c.119-1.74-.513-3.573.159-5.187a6.9,6.9,0,0,1,1.1-1.657c.931-1.141,1.779-2.332,2.711-3.476A2.5,2.5,0,0,0,592.42,204.835Z" transform="translate(-563.015 -169.121)" fill="#3f3d56"/>
      <g id="Group_87" data-name="Group 87" transform="translate(29.185 15.749)" opacity="0.1">
        <path id="Path_837" data-name="Path 837" d="M649.5,149.55l-.451.032-.054.04A2.4,2.4,0,0,0,649.5,149.55Z" transform="translate(-639.104 -149.55)"/>
        <path id="Path_838" data-name="Path 838" d="M640.251,166.185a9.773,9.773,0,0,1-.462,2.108,9.658,9.658,0,0,0-.361,1.271c-.072.415-.079.845-.144,1.263a4.107,4.107,0,0,1-1.66,2.74.693.693,0,0,1-.448.162c-.282-.029-.455-.361-.559-.653-.574-1.657-.437-3.685-1.494-5a5.359,5.359,0,0,0-1.718-1.281,2.166,2.166,0,0,0-.874-.328,2.271,2.271,0,0,0-1.263.462,8.027,8.027,0,0,1-2.5,1.1,3.09,3.09,0,0,1-2.581-.556c-.5-.415-.863-1.032-1.415-1.354a11.307,11.307,0,0,0-1.675-.523,2.458,2.458,0,0,1-1.408-1.61.829.829,0,0,1-.029-.137,2.527,2.527,0,0,0,.029,1.22,2.458,2.458,0,0,0,1.408,1.61,12.691,12.691,0,0,1,1.675.523,13.336,13.336,0,0,1,1.415,1.354,3.09,3.09,0,0,0,2.581.556,8.027,8.027,0,0,0,2.5-1.1,2.271,2.271,0,0,1,1.263-.462,2.166,2.166,0,0,1,.874.328,5.36,5.36,0,0,1,1.711,1.274c1.058,1.317.92,3.346,1.494,5,.1.3.278.624.559.653a.693.693,0,0,0,.448-.162,4.108,4.108,0,0,0,1.66-2.74c.065-.419.072-.848.144-1.263a9.648,9.648,0,0,1,.361-1.271,8.153,8.153,0,0,0,.48-3.039A.683.683,0,0,0,640.251,166.185Z" transform="translate(-621.601 -158.688)"/>
      </g>
    </g>
  </g>
</svg>
