<svg xmlns="http://www.w3.org/2000/svg" width="19.41" height="19.41" viewBox="0 0 19.41 19.41">
  <path id="Icon_awesome-xing-square" data-name="Icon awesome-xing-square" d="M17.33,2.25H2.08A2.08,2.08,0,0,0,0,4.33V19.58a2.08,2.08,0,0,0,2.08,2.08H17.33a2.08,2.08,0,0,0,2.08-2.08V4.33A2.08,2.08,0,0,0,17.33,2.25ZM6.083,14.737H4.064a.292.292,0,0,1-.26-.446L5.94,10.534s0,0,0-.009L4.58,8.186a.276.276,0,0,1,.26-.438H6.858a.645.645,0,0,1,.559.377l1.382,2.4L6.629,14.342A.637.637,0,0,1,6.083,14.737ZM15.6,5.46l-4.454,7.829V13.3l2.838,5.156a.278.278,0,0,1-.26.438H11.707a.621.621,0,0,1-.559-.377L8.288,13.3q.149-.266,4.48-7.9a.622.622,0,0,1,.542-.377h2.032a.277.277,0,0,1,.26.433Z" transform="translate(21.66) rotate(90)" fill="#006365"/>
</svg>
